<svg width="10" height="11" viewBox="0 0 10 11" fill="none" xmlns="http://www.w3.org/2000/svg">
<path d="M0.220103 10.169C0.0669783 10.0095 -0.00639412 9.82131 -1.3916e-05 9.60439C0.00636629 9.38746 0.0861189 9.20562 0.239244 9.05888L7.05331 2.56064H1.6078C1.40363 2.56064 1.22818 2.49364 1.08143 2.35966C0.934687 2.22567 0.851744 2.05979 0.832603 1.862L0.823033 1.77587C0.823033 1.55894 0.899595 1.37392 1.05272 1.22079C1.20585 1.06767 1.39087 0.991105 1.6078 0.991105H9.0535C9.05988 0.991105 9.06626 0.991105 9.07264 0.991105C9.07902 0.991105 9.0854 0.991105 9.09178 0.991105H9.01522C9.04074 0.991105 9.06467 0.991105 9.087 0.991105C9.10933 0.991105 9.13325 0.994295 9.15878 1.00068C9.15878 1.00068 9.16037 1.00068 9.16356 1.00068C9.16675 1.00068 9.17154 1.00387 9.17792 1.01025C9.19068 1.01025 9.20184 1.01184 9.21141 1.01503C9.22098 1.01822 9.22896 1.01982 9.23534 1.01982C9.24172 1.01982 9.2481 1.02141 9.25448 1.0246C9.26086 1.02779 9.26724 1.02939 9.27362 1.02939C9.28 1.03577 9.28638 1.04055 9.29276 1.04374C9.29914 1.04693 9.30552 1.04853 9.3119 1.04853C9.31828 1.04853 9.32626 1.05012 9.33583 1.05331C9.3454 1.0565 9.35337 1.06129 9.35975 1.06767C9.39803 1.08681 9.43631 1.11073 9.4746 1.13944C9.51288 1.16816 9.54797 1.19846 9.57987 1.23036L9.59901 1.2495C9.60539 1.25588 9.61177 1.26386 9.61815 1.27343C9.62453 1.283 9.63091 1.29097 9.63729 1.29735L9.57987 1.23036C9.59901 1.2495 9.61496 1.26545 9.62772 1.27821C9.64048 1.29097 9.65005 1.30692 9.65643 1.32607C9.66281 1.33245 9.66919 1.34042 9.67557 1.34999C9.68195 1.35956 9.68833 1.36754 9.69471 1.37392C9.69471 1.3803 9.69631 1.38668 9.6995 1.39306C9.70269 1.39944 9.70428 1.40263 9.70428 1.40263C9.71066 1.40901 9.71545 1.41698 9.71864 1.42655C9.72183 1.43612 9.72661 1.4441 9.73299 1.45048C9.73299 1.45686 9.73459 1.46324 9.73778 1.46962C9.74097 1.476 9.74575 1.48557 9.75213 1.49833C9.75213 1.50471 9.75373 1.51109 9.75692 1.51747C9.76011 1.52385 9.7617 1.53023 9.7617 1.53661C9.7617 1.54299 9.7633 1.54937 9.76649 1.55575C9.76968 1.56213 9.77128 1.5717 9.77128 1.58446C9.77766 1.59084 9.78085 1.59722 9.78085 1.6036C9.78085 1.60999 9.78085 1.61637 9.78085 1.62275C9.78723 1.62913 9.79042 1.6371 9.79042 1.64667C9.79042 1.65624 9.79042 1.66422 9.79042 1.6706C9.79042 1.67698 9.79201 1.68336 9.7952 1.68974C9.79839 1.69612 9.79999 1.7025 9.79999 1.70888C9.79999 1.72164 9.79999 1.73121 9.79999 1.73759C9.79999 1.74397 9.79999 1.75354 9.79999 1.7663C9.79999 1.7663 9.79999 1.76789 9.79999 1.77108C9.79999 1.77428 9.79999 1.77587 9.79999 1.77587V8.83876C9.79999 9.05569 9.72342 9.24071 9.5703 9.39384C9.41717 9.54696 9.23215 9.62353 9.01522 9.62353C8.79829 9.62353 8.61327 9.54696 8.46014 9.39384C8.30702 9.24071 8.23045 9.05569 8.23045 8.83876V3.61337L1.33026 10.1977C1.17075 10.3445 0.982538 10.4147 0.765611 10.4083C0.548684 10.4019 0.366848 10.3222 0.220103 10.169Z" fill="#233362"/>
</svg>
