<svg width="13" height="13" viewBox="0 0 13 13" fill="none" xmlns="http://www.w3.org/2000/svg">
<path d="M0.705075 11.8815C0.5207 11.6894 0.432354 11.4628 0.440036 11.2016C0.447718 10.9404 0.543747 10.7215 0.728122 10.5448L8.93281 2.72034H2.37597C2.13014 2.72034 1.91888 2.63968 1.74218 2.47835C1.56549 2.31702 1.46562 2.11728 1.44258 1.87913L1.43105 1.77542C1.43105 1.51423 1.52324 1.29144 1.70761 1.10706C1.89199 0.922688 2.11478 0.830501 2.37597 0.830501H11.3412C11.3489 0.830501 11.3566 0.830501 11.3643 0.830501C11.3719 0.830501 11.3796 0.830501 11.3873 0.830501H11.2951C11.3258 0.830501 11.3547 0.830501 11.3815 0.830501C11.4084 0.830501 11.4372 0.834342 11.468 0.842024C11.468 0.842024 11.4699 0.842024 11.4737 0.842024C11.4776 0.842024 11.4833 0.845865 11.491 0.853548C11.5064 0.853548 11.5198 0.855469 11.5313 0.859309C11.5429 0.863151 11.5525 0.865071 11.5602 0.865071C11.5678 0.865071 11.5755 0.866992 11.5832 0.870832C11.5909 0.874674 11.5986 0.876595 11.6062 0.876595C11.6139 0.884277 11.6216 0.890038 11.6293 0.89388C11.637 0.897721 11.6447 0.899641 11.6523 0.899641C11.66 0.899641 11.6696 0.901562 11.6811 0.905403C11.6927 0.909245 11.7023 0.915006 11.71 0.922688C11.7561 0.945735 11.8021 0.974544 11.8482 1.00911C11.8943 1.04368 11.9366 1.08018 11.975 1.11859L11.998 1.14163C12.0057 1.14932 12.0134 1.15892 12.0211 1.17044C12.0288 1.18197 12.0365 1.19157 12.0441 1.19925L11.975 1.11859C11.998 1.14163 12.0173 1.16084 12.0326 1.1762C12.048 1.19157 12.0595 1.21077 12.0672 1.23382C12.0749 1.2415 12.0825 1.25111 12.0902 1.26263C12.0979 1.27415 12.1056 1.28376 12.1133 1.29144C12.1133 1.29912 12.1152 1.3068 12.119 1.31449C12.1229 1.32217 12.1248 1.32601 12.1248 1.32601C12.1325 1.33369 12.1382 1.34329 12.1421 1.35482C12.1459 1.36634 12.1517 1.37594 12.1594 1.38363C12.1594 1.39131 12.1613 1.39899 12.1651 1.40667C12.169 1.41436 12.1747 1.42588 12.1824 1.44124C12.1824 1.44893 12.1843 1.45661 12.1882 1.46429C12.192 1.47197 12.1939 1.47965 12.1939 1.48734C12.1939 1.49502 12.1959 1.5027 12.1997 1.51038C12.2035 1.51807 12.2055 1.52959 12.2055 1.54495C12.2131 1.55264 12.217 1.56032 12.217 1.568C12.217 1.57568 12.217 1.58337 12.217 1.59105C12.2247 1.59873 12.2285 1.60833 12.2285 1.61986C12.2285 1.63138 12.2285 1.64098 12.2285 1.64867C12.2285 1.65635 12.2304 1.66403 12.2343 1.67171C12.2381 1.67939 12.24 1.68708 12.24 1.69476C12.24 1.71012 12.24 1.72165 12.24 1.72933C12.24 1.73701 12.24 1.74854 12.24 1.7639C12.24 1.7639 12.24 1.76582 12.24 1.76966C12.24 1.7735 12.24 1.77542 12.24 1.77542V10.2797C12.24 10.5409 12.1478 10.7637 11.9635 10.9481C11.7791 11.1325 11.5563 11.2246 11.2951 11.2246C11.0339 11.2246 10.8111 11.1325 10.6268 10.9481C10.4424 10.7637 10.3502 10.5409 10.3502 10.2797V3.98792L2.04179 11.916C1.84974 12.0927 1.62311 12.1772 1.36191 12.1696C1.10071 12.1619 0.881768 12.0659 0.705075 11.8815Z" fill="#4A6CA8"/>
</svg>
