<svg width="31" height="25" viewBox="0 0 31 25" fill="none" xmlns="http://www.w3.org/2000/svg">
<path d="M10.2501 17C10.138 17 10.026 17.0164 9.91914 17.0511C9.31164 17.2484 8.67273 17.375 8.00008 17.375C7.32742 17.375 6.68851 17.2484 6.08054 17.0511C5.97367 17.0164 5.86211 17 5.75008 17C2.84101 17 0.484607 19.3662 0.500076 22.2791C0.506638 23.51 1.51867 24.5 2.75008 24.5H13.2501C14.4815 24.5 15.4935 23.51 15.5001 22.2791C15.5155 19.3662 13.1591 17 10.2501 17ZM8.00008 15.5C10.4854 15.5 12.5001 13.4853 12.5001 11C12.5001 8.51469 10.4854 6.5 8.00008 6.5C5.51476 6.5 3.50008 8.51469 3.50008 11C3.50008 13.4853 5.51476 15.5 8.00008 15.5ZM28.2501 0.5H10.2501C9.00929 0.5 8.00008 1.54297 8.00008 2.82453V5C9.09789 5 10.1141 5.31781 11.0001 5.83438V3.5H27.5001V17H24.5001V14H18.5001V17H14.9263C15.8216 17.7823 16.4788 18.8155 16.7868 20H28.2501C29.4909 20 30.5001 18.957 30.5001 17.6755V2.82453C30.5001 1.54297 29.4909 0.5 28.2501 0.5Z" fill="#233462"/>
</svg>
