<svg width="11" height="11" viewBox="0 0 11 11" fill="none" xmlns="http://www.w3.org/2000/svg">
<path d="M1.05795 10.0605C0.901697 9.89775 0.826827 9.70569 0.833337 9.48433C0.839848 9.26298 0.921228 9.07743 1.07748 8.92769L8.0306 2.29683H2.47396C2.26563 2.29683 2.08659 2.22847 1.93685 2.09176C1.78711 1.95504 1.70248 1.78577 1.68295 1.58394L1.67318 1.49605C1.67318 1.2747 1.75131 1.0859 1.90756 0.929646C2.06381 0.773396 2.25261 0.695271 2.47396 0.695271H10.0716C10.0781 0.695271 10.0846 0.695271 10.0911 0.695271C10.0977 0.695271 10.1042 0.695271 10.1107 0.695271H10.0326C10.0586 0.695271 10.083 0.695271 10.1058 0.695271C10.1286 0.695271 10.153 0.698526 10.179 0.705037C10.179 0.705037 10.1807 0.705037 10.1839 0.705037C10.1872 0.705037 10.1921 0.708292 10.1986 0.714803C10.2116 0.714803 10.223 0.716431 10.2328 0.719686C10.2425 0.72294 10.2507 0.724568 10.2572 0.724568C10.2637 0.724568 10.2702 0.726196 10.2767 0.729451C10.2832 0.732706 10.2897 0.734334 10.2962 0.734334C10.3027 0.740845 10.3092 0.745728 10.3158 0.748982C10.3223 0.752237 10.3288 0.753865 10.3353 0.753865C10.3418 0.753865 10.3499 0.755493 10.3597 0.758748C10.3695 0.762003 10.3776 0.766886 10.3841 0.773396C10.4232 0.792928 10.4622 0.817342 10.5013 0.846639C10.5404 0.875936 10.5762 0.90686 10.6087 0.939412L10.6283 0.958943C10.6348 0.965454 10.6413 0.973592 10.6478 0.983357C10.6543 0.993123 10.6608 1.00126 10.6673 1.00777L10.6087 0.939412C10.6283 0.958943 10.6445 0.97522 10.6576 0.98824C10.6706 1.00126 10.6803 1.01754 10.6869 1.03707C10.6934 1.04358 10.6999 1.05172 10.7064 1.06148C10.7129 1.07125 10.7194 1.07939 10.7259 1.0859C10.7259 1.09241 10.7275 1.09892 10.7308 1.10543C10.7341 1.11194 10.7357 1.11519 10.7357 1.11519C10.7422 1.1217 10.7471 1.12984 10.7503 1.13961C10.7536 1.14937 10.7585 1.15751 10.765 1.16402C10.765 1.17053 10.7666 1.17704 10.7699 1.18355C10.7731 1.19006 10.778 1.19983 10.7845 1.21285C10.7845 1.21936 10.7861 1.22587 10.7894 1.23238C10.7926 1.23889 10.7943 1.2454 10.7943 1.25191C10.7943 1.25842 10.7959 1.26493 10.7992 1.27144C10.8024 1.27795 10.804 1.28772 10.804 1.30074C10.8106 1.30725 10.8138 1.31376 10.8138 1.32027C10.8138 1.32678 10.8138 1.33329 10.8138 1.3398C10.8203 1.34631 10.8236 1.35445 10.8236 1.36422C10.8236 1.37398 10.8236 1.38212 10.8236 1.38863C10.8236 1.39514 10.8252 1.40165 10.8285 1.40816C10.8317 1.41467 10.8333 1.42118 10.8333 1.42769C10.8333 1.44071 10.8333 1.45048 10.8333 1.45699C10.8333 1.4635 10.8333 1.47327 10.8333 1.48629C10.8333 1.48629 10.8333 1.48792 10.8333 1.49117C10.8333 1.49442 10.8333 1.49605 10.8333 1.49605V8.70308C10.8333 8.92444 10.7552 9.11324 10.599 9.26949C10.4427 9.42574 10.2539 9.50387 10.0326 9.50387C9.8112 9.50387 9.6224 9.42574 9.46615 9.26949C9.3099 9.11324 9.23177 8.92444 9.23177 8.70308V3.37105L2.19076 10.0898C2.028 10.2395 1.83594 10.3112 1.61459 10.3046C1.39323 10.2981 1.20769 10.2168 1.05795 10.0605Z" fill="#233362"/>
</svg>
