<svg width="14" height="14" viewBox="0 0 14 14" fill="none" xmlns="http://www.w3.org/2000/svg">
<path d="M3.17269 0.901585C3.17269 0.901585 3.09337 0.822265 2.93473 0.663625C2.77609 0.504985 2.47203 0.425664 2.02255 0.425664C1.57307 0.425664 1.18969 0.584305 0.872405 0.901585C0.555125 1.21887 0.396484 1.60225 0.396484 2.05173C0.396484 2.50121 0.555125 2.88459 0.872405 3.20187C1.18969 3.51915 1.57307 3.67779 2.02255 3.67779C2.47203 3.67779 2.85541 3.51915 3.17269 3.20187C3.48997 2.88459 3.64861 2.50121 3.64861 2.05173C3.64861 1.60225 3.48997 1.21887 3.17269 0.901585ZM0.621225 4.90725H3.42387V13.9365H0.621225V4.90725ZM10.5627 4.68251C9.88405 4.68251 9.32 4.83674 8.87052 5.14521C8.42104 5.45368 8.10376 5.78418 7.91867 6.13671H7.87901V4.90725H5.18213V13.9365H7.98478V9.46816C7.98478 8.87766 8.08393 8.34446 8.28223 7.86854C8.48053 7.39261 8.94543 7.15465 9.67694 7.15465C10.3908 7.15465 10.8117 7.42126 10.9394 7.95446C11.0672 8.48767 11.1311 9.01868 11.1311 9.54748V13.9365H13.9338V8.97902C13.9338 8.3709 13.8897 7.80684 13.8016 7.28685C13.7223 6.76687 13.5614 6.31298 13.3191 5.92519C13.0767 5.53741 12.7352 5.23334 12.2945 5.01301C11.8538 4.79268 11.2766 4.68251 10.5627 4.68251Z" fill="#233462"/>
</svg>
