<svg width="15" height="15" viewBox="0 0 15 15" fill="none" xmlns="http://www.w3.org/2000/svg">
<path d="M14.7634 6.19755C14.7634 6.19755 14.7623 6.12484 14.76 5.97942C14.7578 5.834 14.7479 5.58062 14.7303 5.21927C14.7127 4.85792 14.6774 4.54725 14.6245 4.28726C14.5717 4.02727 14.5012 3.79151 14.413 3.57999C14.3249 3.35084 14.2169 3.13491 14.0891 2.93221C13.9613 2.7295 13.8093 2.54442 13.633 2.37697C13.4656 2.20951 13.2805 2.05969 13.0778 1.92749C12.8751 1.79529 12.6592 1.68512 12.43 1.59698C12.2185 1.51766 11.9827 1.44936 11.7228 1.39207C11.4628 1.33479 11.1521 1.29733 10.7907 1.27971C10.4294 1.26208 10.1033 1.25106 9.81246 1.24665C9.52162 1.24225 8.9179 1.24004 8.00132 1.24004C7.08473 1.24004 6.48101 1.24225 6.19017 1.24665C5.89933 1.25106 5.57324 1.26208 5.21189 1.27971C4.85054 1.29733 4.53987 1.33258 4.27988 1.38546C4.01989 1.43834 3.78413 1.50885 3.57261 1.59698C3.34346 1.68512 3.12754 1.79308 2.92483 1.92088C2.72212 2.04867 2.53704 2.2007 2.36959 2.37697C2.19332 2.54442 2.03909 2.7295 1.90689 2.93221C1.77469 3.13491 1.66893 3.35084 1.58961 3.57999C1.50147 3.79151 1.43097 4.02727 1.37809 4.28726C1.32521 4.54725 1.28995 4.85792 1.27233 5.21927C1.2547 5.58062 1.24368 5.90671 1.23928 6.19755C1.23487 6.48839 1.23267 7.09211 1.23267 8.00869C1.23267 8.92528 1.23487 9.529 1.23928 9.81984C1.24368 10.1107 1.2547 10.4368 1.27233 10.7981C1.28995 11.1595 1.32521 11.4701 1.37809 11.7301C1.43097 11.9901 1.50147 12.2259 1.58961 12.4374C1.66893 12.6665 1.77469 12.8825 1.90689 13.0852C2.03909 13.2879 2.19332 13.473 2.36959 13.6404C2.53704 13.8167 2.72212 13.9709 2.92483 14.1031C3.12754 14.2353 3.33906 14.3411 3.55939 14.4204C3.77972 14.5085 4.01989 14.579 4.27988 14.6319C4.53987 14.6848 4.85054 14.7201 5.21189 14.7377C5.57324 14.7553 5.89713 14.7663 6.18356 14.7707C6.47 14.7751 7.07591 14.7773 8.00132 14.7773C8.9179 14.7773 9.52162 14.7751 9.81246 14.7707C10.1033 14.7663 10.4294 14.7553 10.7907 14.7377C11.1521 14.7201 11.4628 14.6848 11.7228 14.6319C11.9827 14.579 12.2185 14.5085 12.43 14.4204C12.8883 14.2441 13.2893 13.9841 13.633 13.6404C13.9768 13.2967 14.2368 12.8957 14.413 12.4374C14.4923 12.2259 14.5606 11.9901 14.6179 11.7301C14.6752 11.4701 14.7127 11.1595 14.7303 10.7981C14.7391 10.4368 14.7479 10.1107 14.7567 9.81984C14.7656 9.529 14.77 8.92528 14.77 8.00869C14.77 7.09211 14.7678 6.48839 14.7634 6.19755ZM13.5141 10.7452C13.4964 11.0801 13.4634 11.3445 13.4149 11.5384C13.3664 11.7323 13.3202 11.8866 13.2761 12.0011C13.1615 12.3008 12.9919 12.5608 12.7671 12.7811C12.5424 13.0015 12.2846 13.1689 11.9938 13.2835C11.8704 13.3364 11.7117 13.3848 11.5178 13.4289C11.3239 13.473 11.064 13.5038 10.7379 13.5214C10.3765 13.5391 10.057 13.5501 9.77941 13.5545C9.50179 13.5589 8.90909 13.5611 8.00132 13.5611C7.10235 13.5611 6.51186 13.5589 6.22983 13.5545C5.94781 13.5501 5.62612 13.5391 5.26477 13.5214C4.93868 13.5038 4.67868 13.473 4.48479 13.4289C4.2909 13.3848 4.13226 13.3364 4.00887 13.2835C3.86786 13.2306 3.73125 13.1623 3.59905 13.0786C3.46685 12.9948 3.34346 12.8957 3.22889 12.7811C3.12313 12.6754 3.02618 12.5564 2.93805 12.4242C2.84992 12.292 2.77941 12.151 2.72653 12.0011C2.68246 11.8866 2.63619 11.7323 2.58772 11.5384C2.53924 11.3445 2.5106 11.0801 2.50179 10.7452C2.48416 10.3927 2.47314 10.0754 2.46874 9.7934C2.46433 9.51137 2.46213 8.91647 2.46213 8.00869C2.46213 7.10973 2.46433 6.51924 2.46874 6.23721C2.47314 5.95518 2.48416 5.6379 2.50179 5.28537C2.5106 4.95046 2.53924 4.68606 2.58772 4.49217C2.63619 4.29828 2.68246 4.14404 2.72653 4.02947C2.77941 3.87964 2.84992 3.73863 2.93805 3.60643C3.02618 3.47423 3.12754 3.35525 3.24211 3.24949C3.34787 3.13491 3.46685 3.03576 3.59905 2.95204C3.73125 2.86831 3.86786 2.80001 4.00887 2.74713C4.13226 2.69425 4.2909 2.64577 4.48479 2.60171C4.67868 2.55764 4.93868 2.52679 5.26477 2.50917C5.62612 2.49154 5.94781 2.48052 6.22983 2.47612C6.51186 2.47171 7.10235 2.46951 8.00132 2.46951C8.90909 2.46951 9.50399 2.47171 9.78602 2.47612C10.068 2.48052 10.3853 2.49154 10.7379 2.50917C11.0728 2.52679 11.3372 2.55764 11.5311 2.60171C11.725 2.64577 11.8792 2.69425 11.9938 2.74713C12.1436 2.80001 12.2846 2.86831 12.4168 2.95204C12.549 3.03576 12.668 3.13491 12.7737 3.24949C12.8883 3.35525 12.9875 3.47423 13.0712 3.60643C13.1549 3.73863 13.2232 3.87964 13.2761 4.02947C13.3202 4.14404 13.3664 4.29828 13.4149 4.49217C13.4634 4.68606 13.4964 4.95046 13.5141 5.28537C13.5317 5.6379 13.5427 5.95518 13.5471 6.23721C13.5515 6.51924 13.5537 7.10973 13.5537 8.00869C13.5537 8.91647 13.5515 9.51137 13.5471 9.7934C13.5427 10.0754 13.5317 10.3927 13.5141 10.7452ZM8.00132 4.53183C7.51658 4.53183 7.0671 4.62437 6.65287 4.80945C6.22983 4.98572 5.85967 5.23249 5.54239 5.54977C5.22511 5.86705 4.97834 6.23721 4.80207 6.66025C4.61699 7.08329 4.52445 7.53277 4.52445 8.00869C4.52445 8.49343 4.61699 8.94291 4.80207 9.35714C4.97834 9.78018 5.22511 10.1503 5.54239 10.4676C5.85967 10.7849 6.22983 11.0317 6.65287 11.2079C7.0671 11.393 7.51658 11.4856 8.00132 11.4856C8.47724 11.4856 8.92672 11.393 9.34976 11.2079C9.7728 11.0317 10.143 10.7849 10.4602 10.4676C10.7775 10.1503 11.0243 9.78018 11.2006 9.35714C11.3856 8.94291 11.4782 8.49343 11.4782 8.00869C11.4782 7.53277 11.3856 7.08329 11.2006 6.66025C11.0243 6.23721 10.7775 5.86705 10.4602 5.54977C10.143 5.23249 9.7728 4.98572 9.34976 4.80945C8.92672 4.62437 8.47724 4.53183 8.00132 4.53183ZM9.60094 9.60832C9.60094 9.60832 9.49077 9.71848 9.27044 9.93882C9.0501 10.1592 8.62706 10.2693 8.00132 10.2693C7.37557 10.2693 6.84236 10.049 6.40169 9.60832C5.96103 9.16765 5.74069 8.63444 5.74069 8.00869C5.74069 7.38295 5.96103 6.84974 6.40169 6.40907C6.84236 5.9684 7.37557 5.74807 8.00132 5.74807C8.62706 5.74807 9.16027 5.9684 9.60094 6.40907C10.0416 6.84974 10.2619 7.38295 10.2619 8.00869C10.2619 8.63444 10.0416 9.16765 9.60094 9.60832ZM12.43 4.39963C12.43 4.61996 12.3507 4.80945 12.1921 4.96809C12.0334 5.12673 11.8395 5.20605 11.6104 5.20605C11.39 5.20605 11.2006 5.12673 11.0419 4.96809C10.8833 4.80945 10.804 4.61996 10.804 4.39963C10.804 4.17048 10.8833 3.97659 11.0419 3.81795C11.2006 3.65931 11.39 3.57999 11.6104 3.57999C11.8395 3.57999 12.0334 3.65931 12.1921 3.81795C12.3507 3.97659 12.43 4.17048 12.43 4.39963Z" fill="#233462"/>
</svg>
