<svg width="14" height="12" viewBox="0 0 14 12" fill="none" xmlns="http://www.w3.org/2000/svg">
<path d="M13.5537 1.97717C13.3069 2.09174 13.0491 2.18649 12.7803 2.2614C12.5115 2.33631 12.2361 2.38699 11.954 2.41343C12.2449 2.24598 12.4961 2.03005 12.7076 1.76565C12.9191 1.50125 13.0777 1.206 13.1835 0.879909C12.9103 1.03855 12.6261 1.17516 12.3308 1.28973C12.0356 1.4043 11.7293 1.49244 11.412 1.55413C11.1564 1.28973 10.8546 1.07821 10.5064 0.919569C10.1583 0.760928 9.78595 0.681608 9.38935 0.681608C9.00156 0.681608 8.64022 0.752115 8.30531 0.893128C7.9704 1.04296 7.67736 1.24346 7.42618 1.49464C7.175 1.74582 6.97449 2.03886 6.82467 2.37377C6.68365 2.70868 6.61315 3.07003 6.61315 3.45781C6.61315 3.56357 6.61976 3.66933 6.63298 3.77509C6.6462 3.88085 6.66162 3.98661 6.67925 4.09237C6.10638 4.05712 5.55114 3.96899 5.01352 3.82797C4.4671 3.67815 3.95152 3.47764 3.46678 3.22646C2.98205 2.97528 2.52816 2.67783 2.10512 2.33411C1.68208 1.99039 1.2987 1.60701 0.954979 1.18397C0.840405 1.39549 0.750068 1.61803 0.683968 1.85158C0.617868 2.08513 0.584818 2.3297 0.584818 2.58529C0.584818 3.07003 0.697188 3.5129 0.921929 3.9139C1.14667 4.31491 1.44412 4.64321 1.81428 4.89879C1.59395 4.88998 1.37582 4.85473 1.15989 4.79303C0.943962 4.73134 0.743458 4.64761 0.558378 4.54185V4.58151C0.558378 5.25133 0.772102 5.83962 1.19955 6.34639C1.627 6.85315 2.158 7.17264 2.79256 7.30484C2.66917 7.33128 2.54799 7.35331 2.42901 7.37094C2.31003 7.38856 2.18444 7.39738 2.05224 7.39738C1.96411 7.39738 1.87597 7.39297 1.78784 7.38416C1.69971 7.37534 1.61598 7.36212 1.53666 7.3445C1.71293 7.89974 2.03682 8.35803 2.50833 8.71938C2.97985 9.08073 3.51966 9.26581 4.12778 9.27462C3.65186 9.65359 3.12086 9.94664 2.53477 10.1538C1.94868 10.3609 1.32955 10.4644 0.677358 10.4644C0.562785 10.4644 0.450415 10.4622 0.340248 10.4578C0.230081 10.4534 0.122118 10.4424 0.0163574 10.4248C0.324825 10.6275 0.646512 10.8037 0.981419 10.9536C1.31633 11.1122 1.66225 11.2444 2.01919 11.3502C2.37613 11.4559 2.74409 11.5352 3.12306 11.5881C3.50204 11.6498 3.88542 11.6807 4.2732 11.6807C5.55114 11.6807 6.67925 11.4383 7.65753 10.9536C8.64462 10.4776 9.47308 9.86071 10.1429 9.10276C10.8127 8.34481 11.3195 7.49873 11.6632 6.56452C12.0069 5.62149 12.1788 4.69168 12.1788 3.77509L12.1656 3.41815C12.4388 3.22426 12.6922 3.00613 12.9257 2.76376C13.1593 2.52139 13.3686 2.2592 13.5537 1.97717Z" fill="#233462"/>
</svg>
