<svg width="25" height="24" viewBox="0 0 25 24" fill="none" xmlns="http://www.w3.org/2000/svg">
<path d="M0.5 18.9984V21C0.5 22.6547 4.53125 24 9.5 24C14.4688 24 18.5 22.6547 18.5 21V18.9984C16.5641 20.3625 13.025 21 9.5 21C5.975 21 2.43594 20.3625 0.5 18.9984ZM15.5 6C20.4688 6 24.5 4.65469 24.5 3C24.5 1.34531 20.4688 0 15.5 0C10.5312 0 6.5 1.34531 6.5 3C6.5 4.65469 10.5312 6 15.5 6ZM0.5 14.0812V16.5C0.5 18.1547 4.53125 19.5 9.5 19.5C14.4688 19.5 18.5 18.1547 18.5 16.5V14.0812C16.5641 15.675 13.0203 16.5 9.5 16.5C5.97969 16.5 2.43594 15.675 0.5 14.0812ZM20 14.5969C22.6859 14.0766 24.5 13.1109 24.5 12V9.99844C23.4125 10.7672 21.8141 11.2922 20 11.6156V14.5969ZM9.5 7.5C4.53125 7.5 0.5 9.17813 0.5 11.25C0.5 13.3219 4.53125 15 9.5 15C14.4688 15 18.5 13.3219 18.5 11.25C18.5 9.17813 14.4688 7.5 9.5 7.5ZM19.7797 10.1391C22.5922 9.63281 24.5 8.63906 24.5 7.5V5.49844C22.8359 6.675 19.9766 7.30781 16.9672 7.45781C18.35 8.12813 19.3672 9.02812 19.7797 10.1391Z" fill="#A3B9E0"/>
</svg>
