<svg width="19" height="19" viewBox="0 0 19 19" fill="none" xmlns="http://www.w3.org/2000/svg">
<path d="M16.9999 0.549805H1.99603C1.30853 0.549805 0.749939 1.11621 0.749939 1.81152V16.7881C0.749939 17.4834 1.30853 18.0498 1.99603 18.0498H16.9999C17.6874 18.0498 18.2499 17.4834 18.2499 16.7881V1.81152C18.2499 1.11621 17.6874 0.549805 16.9999 0.549805ZM6.039 15.5498H3.44525V7.19824H6.04291V15.5498H6.039ZM4.74213 6.05762C3.9101 6.05762 3.23822 5.38184 3.23822 4.55371C3.23822 3.72559 3.9101 3.0498 4.74213 3.0498C5.57025 3.0498 6.24603 3.72559 6.24603 4.55371C6.24603 5.38574 5.57416 6.05762 4.74213 6.05762ZM15.7617 15.5498H13.1679V11.4873C13.1679 10.5186 13.1484 9.27246 11.8203 9.27246C10.4687 9.27246 10.2617 10.3271 10.2617 11.417V15.5498H7.66791V7.19824H10.1562V8.33887H10.1913C10.539 7.68262 11.3867 6.99121 12.6484 6.99121C15.2734 6.99121 15.7617 8.72168 15.7617 10.9717V15.5498Z" fill="#F6F5F2"/>
</svg>
