<svg width="31" height="25" viewBox="0 0 31 25" fill="none" xmlns="http://www.w3.org/2000/svg">
<path d="M24.5046 9.45323L24.1203 10.1235C23.9796 10.372 23.6796 10.4751 23.4125 10.3767C22.8593 10.1704 22.3531 9.8751 21.9078 9.50479C21.6921 9.32667 21.6359 9.0126 21.7765 8.76885L22.1609 8.09854C21.8375 7.72354 21.5843 7.2876 21.4156 6.81417H20.6421C20.3609 6.81417 20.1171 6.6126 20.0703 6.33135C19.9765 5.76885 19.9718 5.17823 20.0703 4.59229C20.1171 4.31104 20.3609 4.10479 20.6421 4.10479H21.4156C21.5843 3.63135 21.8375 3.19542 22.1609 2.82042L21.7765 2.1501C21.6359 1.90635 21.6875 1.59229 21.9078 1.41417C22.3531 1.04385 22.864 0.748541 23.4125 0.542291C23.6796 0.443853 23.9796 0.546978 24.1203 0.795416L24.5046 1.46573C24.9968 1.37667 25.4984 1.37667 25.9906 1.46573L26.375 0.795416C26.5156 0.546978 26.8156 0.443853 27.0828 0.542291C27.6359 0.748541 28.1421 1.04385 28.5875 1.41417C28.8031 1.59229 28.8593 1.90635 28.7187 2.1501L28.3343 2.82042C28.6578 3.19542 28.9109 3.63135 29.0796 4.10479H29.8531C30.1343 4.10479 30.3781 4.30635 30.425 4.5876C30.5187 5.1501 30.5234 5.74073 30.425 6.32667C30.3781 6.60792 30.1343 6.81417 29.8531 6.81417H29.0796C28.9109 7.2876 28.6578 7.72354 28.3343 8.09854L28.7187 8.76885C28.8593 9.0126 28.8078 9.32667 28.5875 9.50479C28.1421 9.8751 27.6312 10.1704 27.0828 10.3767C26.8156 10.4751 26.5156 10.372 26.375 10.1235L25.9906 9.45323C25.5031 9.54229 24.9968 9.54229 24.5046 9.45323ZM24.0125 6.69698C25.8171 8.08448 27.875 6.02667 26.4875 4.22198C24.6828 2.82979 22.625 4.89229 24.0125 6.69698ZM18.6078 13.911L20.1875 14.6985C20.6609 14.9704 20.8671 15.547 20.6796 16.0626C20.2625 17.197 19.4421 18.2376 18.6828 19.147C18.3359 19.5642 17.7359 19.6673 17.2625 19.3954L15.8984 18.6079C15.1484 19.2501 14.2765 19.761 13.325 20.0939V21.6689C13.325 22.2126 12.9359 22.6814 12.4015 22.7751C11.2484 22.972 10.039 22.9814 8.8437 22.7751C8.30464 22.6814 7.9062 22.2173 7.9062 21.6689V20.0939C6.95464 19.7564 6.08276 19.2501 5.33276 18.6079L3.9687 19.3907C3.49995 19.6626 2.89526 19.5595 2.54839 19.1423C1.78901 18.2329 0.987452 17.1923 0.570264 16.0626C0.382764 15.5517 0.589014 14.9751 1.06245 14.6985L2.62339 13.911C2.44058 12.9314 2.44058 11.9235 2.62339 10.9392L1.06245 10.147C0.589014 9.8751 0.378077 9.29854 0.570264 8.7876C0.987452 7.65323 1.78901 6.6126 2.54839 5.70323C2.89526 5.28604 3.49526 5.18292 3.9687 5.45479L5.33276 6.24229C6.08276 5.6001 6.95464 5.08917 7.9062 4.75635V3.17667C7.9062 2.6376 8.29058 2.16885 8.82495 2.0751C9.97808 1.87823 11.1921 1.86885 12.3875 2.07042C12.9265 2.16417 13.325 2.62823 13.325 3.17667V4.75167C14.2765 5.08917 15.1484 5.59542 15.8984 6.2376L17.2625 5.4501C17.7312 5.17823 18.3359 5.28135 18.6828 5.69854C19.4421 6.60792 20.239 7.64854 20.6562 8.78292C20.8437 9.29385 20.6609 9.87042 20.1875 10.147L18.6078 10.9345C18.7906 11.9189 18.7906 12.9267 18.6078 13.911ZM13.0953 14.9001C15.8703 11.2907 11.75 7.17042 8.14058 9.94542C5.36558 13.5548 9.48589 17.6751 13.0953 14.9001ZM24.5046 23.4642L24.1203 24.1345C23.9796 24.3829 23.6796 24.486 23.4125 24.3876C22.8593 24.1814 22.3531 23.886 21.9078 23.5157C21.6921 23.3376 21.6359 23.0235 21.7765 22.7798L22.1609 22.1095C21.8375 21.7345 21.5843 21.2985 21.4156 20.8251H20.6421C20.3609 20.8251 20.1171 20.6235 20.0703 20.3423C19.9765 19.7798 19.9718 19.1892 20.0703 18.6032C20.1171 18.322 20.3609 18.1157 20.6421 18.1157H21.4156C21.5843 17.6423 21.8375 17.2064 22.1609 16.8314L21.7765 16.161C21.6359 15.9173 21.6875 15.6032 21.9078 15.4251C22.3531 15.0548 22.864 14.7595 23.4125 14.5532C23.6796 14.4548 23.9796 14.5579 24.1203 14.8064L24.5046 15.4767C24.9968 15.3876 25.4984 15.3876 25.9906 15.4767L26.375 14.8064C26.5156 14.5579 26.8156 14.4548 27.0828 14.5532C27.6359 14.7595 28.1421 15.0548 28.5875 15.4251C28.8031 15.6032 28.8593 15.9173 28.7187 16.161L28.3343 16.8314C28.6578 17.2064 28.9109 17.6423 29.0796 18.1157H29.8531C30.1343 18.1157 30.3781 18.3173 30.425 18.5985C30.5187 19.161 30.5234 19.7517 30.425 20.3376C30.3781 20.6189 30.1343 20.8251 29.8531 20.8251H29.0796C28.9109 21.2985 28.6578 21.7345 28.3343 22.1095L28.7187 22.7798C28.8593 23.0235 28.8078 23.3376 28.5875 23.5157C28.1421 23.886 27.6312 24.1814 27.0828 24.3876C26.8156 24.486 26.5156 24.3829 26.375 24.1345L25.9906 23.4642C25.5031 23.5532 24.9968 23.5532 24.5046 23.4642ZM24.0125 20.7032C25.8171 22.0907 27.875 20.0329 26.4875 18.2282C24.6828 16.8407 22.625 18.8985 24.0125 20.7032Z" fill="#233462"/>
</svg>
