<svg width="25" height="25" viewBox="0 0 25 25" fill="none" xmlns="http://www.w3.org/2000/svg">
<path d="M22.425 6.11646L23.5266 8.06177C23.7141 8.38989 23.757 8.72974 23.6555 9.0813C23.5539 9.43286 23.3469 9.70239 23.0344 9.88989C23.0031 9.90552 22.9719 9.92114 22.9406 9.93677C22.9094 9.95239 22.8703 9.96021 22.8234 9.96021L18.3469 11.6477C17.9875 11.7727 17.7336 12.0032 17.5852 12.3391C17.4367 12.675 17.425 13.0149 17.55 13.3586C17.6125 13.5305 17.7141 13.6868 17.8547 13.8274C17.9953 13.968 18.1594 14.0696 18.3469 14.1321L22.8234 15.7961C23.1672 15.9368 23.4133 16.1711 23.5617 16.4993C23.7102 16.8274 23.7219 17.1711 23.5969 17.5305C23.5813 17.5618 23.5656 17.593 23.55 17.6243C23.5344 17.6555 23.5188 17.6868 23.5031 17.718L22.3781 19.6633C22.1906 19.9915 21.9211 20.2024 21.5695 20.2961C21.218 20.3899 20.8781 20.343 20.55 20.1555C20.5344 20.1399 20.5148 20.1243 20.4914 20.1086C20.468 20.093 20.4484 20.0774 20.4328 20.0618L16.4016 17.0618C16.1047 16.8274 15.7766 16.7375 15.4172 16.7922C15.0578 16.8469 14.7688 17.0227 14.55 17.3196C14.4406 17.4602 14.3625 17.6125 14.3156 17.7766C14.2688 17.9407 14.2609 18.1165 14.2922 18.304L14.9719 23.3899C15.0188 23.7493 14.9289 24.0735 14.7023 24.3625C14.4758 24.6516 14.1828 24.8196 13.8234 24.8665C13.7922 24.8821 13.7609 24.8899 13.7297 24.8899C13.6984 24.8899 13.6672 24.8899 13.6359 24.8899H11.3156C10.9406 24.8899 10.6242 24.761 10.3664 24.5032C10.1086 24.2454 9.97969 23.929 9.97969 23.554C9.97969 23.5383 9.97969 23.5149 9.97969 23.4836C9.97969 23.4524 9.97969 23.429 9.97969 23.4133L10.5656 18.2571C10.6125 17.8821 10.5227 17.55 10.2961 17.261C10.0695 16.9719 9.76875 16.8118 9.39375 16.7805C9.22188 16.7493 9.05391 16.7571 8.88984 16.804C8.72578 16.8508 8.57344 16.929 8.43281 17.0383L4.26094 20.2493C3.96406 20.468 3.63203 20.554 3.26485 20.5071C2.89766 20.4602 2.60469 20.2883 2.38594 19.9915C2.37031 19.9602 2.35469 19.9329 2.33906 19.9094C2.32344 19.886 2.30781 19.8665 2.29219 19.8508L1.07344 17.718C0.885939 17.3899 0.84297 17.05 0.944533 16.6985C1.0461 16.3469 1.25313 16.0774 1.56563 15.8899C1.59688 15.8743 1.62813 15.8586 1.65938 15.843C1.69063 15.8274 1.72188 15.8118 1.75313 15.7961L6.22969 14.1321C6.57344 14.0071 6.81953 13.7766 6.96797 13.4407C7.11641 13.1047 7.12813 12.7649 7.00313 12.4211C6.94063 12.2493 6.83906 12.093 6.69844 11.9524C6.55781 11.8118 6.40156 11.7102 6.22969 11.6477L1.77656 9.98364C1.43281 9.85864 1.18672 9.62817 1.03828 9.29224C0.889845 8.9563 0.878126 8.61646 1.00313 8.27271C1.01875 8.22583 1.03438 8.18677 1.05 8.15552C1.06563 8.12427 1.08125 8.09302 1.09688 8.06177L2.29219 6.02271C2.47969 5.71021 2.74922 5.50708 3.10078 5.41333C3.45235 5.31958 3.78438 5.36646 4.09688 5.55396C4.12813 5.56958 4.15547 5.5813 4.17891 5.58911C4.20235 5.59692 4.22188 5.60864 4.2375 5.62427L8.43281 8.78833C8.72969 9.00708 9.06172 9.08911 9.42891 9.03442C9.79609 8.97974 10.0891 8.80396 10.3078 8.50708C10.4016 8.36646 10.4719 8.21411 10.5188 8.05005C10.5656 7.88599 10.5813 7.71802 10.5656 7.54614L9.93281 2.38989C9.88594 2.01489 9.97578 1.68286 10.2023 1.3938C10.4289 1.10474 10.7297 0.936768 11.1047 0.889893C11.1203 0.889893 11.1438 0.889893 11.175 0.889893C11.2063 0.889893 11.2375 0.889893 11.2688 0.889893H13.6359C14.0109 0.889893 14.3273 1.0188 14.5852 1.27661C14.843 1.53442 14.9719 1.85083 14.9719 2.22583C14.9719 2.25708 14.9719 2.28833 14.9719 2.31958C14.9719 2.35083 14.9719 2.37427 14.9719 2.38989L14.2922 7.49927C14.2453 7.87427 14.3313 8.2063 14.55 8.49536C14.7688 8.78442 15.0578 8.95239 15.4172 8.99927C15.6047 9.03052 15.7805 9.02271 15.9445 8.97583C16.1086 8.92896 16.2609 8.85083 16.4016 8.74146L20.4797 5.71802C20.7766 5.49927 21.1047 5.41333 21.4641 5.46021C21.8234 5.50708 22.1125 5.67896 22.3313 5.97583C22.3625 6.00708 22.3859 6.03442 22.4016 6.05786C22.4172 6.0813 22.425 6.10083 22.425 6.11646Z" fill="#4A6CA8"/>
</svg>
