<svg width="25" height="25" viewBox="0 0 25 25" fill="none" xmlns="http://www.w3.org/2000/svg">
<path d="M20.4328 10.6165L18.3469 6.93677C17.9563 6.20239 17.4016 5.62817 16.6828 5.21411C15.9641 4.80005 15.1828 4.59302 14.3391 4.59302H11.3859V3.65552C11.3859 2.88989 11.6555 2.23755 12.1945 1.69849C12.7336 1.15942 13.3859 0.889893 14.1516 0.889893H21.5344C22.3 0.889893 22.9523 1.15942 23.4914 1.69849C24.0305 2.23755 24.3 2.88989 24.3 3.65552V11.0383C24.3 11.804 24.0305 12.4563 23.4914 12.9954C22.9523 13.5344 22.3 13.804 21.5344 13.804H20.925C20.9563 13.6633 20.9797 13.5149 20.9953 13.3586C21.0109 13.2024 21.0188 13.0461 21.0188 12.8899C21.0188 12.4836 20.9719 12.0891 20.8781 11.7063C20.7844 11.3235 20.6359 10.9602 20.4328 10.6165ZM6.76875 10.1243C7.90938 10.1243 8.97969 10.343 9.97969 10.7805C10.9953 11.218 11.8781 11.8118 12.6281 12.5618C13.3781 13.3118 13.9719 14.1946 14.4094 15.2102C14.8469 16.2102 15.0656 17.2805 15.0656 18.4211C15.0656 18.5618 15.0617 18.7024 15.0539 18.843C15.0461 18.9836 15.0344 19.1243 15.0188 19.2649C15.3781 19.1711 15.7102 19.011 16.0148 18.7844C16.3195 18.5579 16.5656 18.2727 16.7531 17.929L18.8156 14.2493C18.9406 14.0461 19.0305 13.8313 19.0852 13.6047C19.1398 13.3782 19.1672 13.1399 19.1672 12.8899C19.1672 12.6399 19.1398 12.4016 19.0852 12.175C19.0305 11.9485 18.9406 11.7336 18.8156 11.5305L16.7531 7.82739C16.5031 7.40552 16.1633 7.06567 15.7336 6.80786C15.3039 6.55005 14.8391 6.42114 14.3391 6.42114H10.2609C9.76094 6.42114 9.2961 6.55005 8.86641 6.80786C8.43672 7.06567 8.09688 7.41333 7.84688 7.85083L6.55782 10.1243C6.58907 10.1243 6.62422 10.1243 6.66328 10.1243C6.70235 10.1243 6.7375 10.1243 6.76875 10.1243ZM6.76875 11.9758C5.87813 11.9758 5.03438 12.1399 4.2375 12.468C3.45625 12.8118 2.77266 13.2766 2.18672 13.8625C1.60078 14.4485 1.14375 15.1321 0.815628 15.9133C0.471878 16.6946 0.300003 17.5305 0.300003 18.4211C0.300003 19.3118 0.471878 20.1555 0.815628 20.9524C1.14375 21.7336 1.60078 22.4172 2.18672 23.0032C2.77266 23.5891 3.45625 24.0461 4.2375 24.3743C5.03438 24.718 5.87813 24.8899 6.76875 24.8899C7.65938 24.8899 8.49532 24.718 9.27657 24.3743C10.0578 24.0461 10.7414 23.5891 11.3273 23.0032C11.9133 22.4172 12.3781 21.7336 12.7219 20.9524C13.05 20.1555 13.2141 19.3118 13.2141 18.4211C13.2141 17.5305 13.05 16.6946 12.7219 15.9133C12.3781 15.1321 11.9133 14.4485 11.3273 13.8625C10.7414 13.2766 10.0578 12.8118 9.27657 12.468C8.49532 12.1399 7.65938 11.9758 6.76875 11.9758ZM6.76875 11.9758C5.87813 11.9758 5.03438 12.1399 4.2375 12.468C3.45625 12.8118 2.77266 13.2766 2.18672 13.8625C1.60078 14.4485 1.14375 15.1321 0.815628 15.9133C0.471878 16.6946 0.300003 17.5305 0.300003 18.4211C0.300003 19.3118 0.471878 20.1555 0.815628 20.9524C1.14375 21.7336 1.60078 22.4172 2.18672 23.0032C2.77266 23.5891 3.45625 24.0461 4.2375 24.3743C5.03438 24.718 5.87813 24.8899 6.76875 24.8899C7.65938 24.8899 8.49532 24.718 9.27657 24.3743C10.0578 24.0461 10.7414 23.5891 11.3273 23.0032C11.9133 22.4172 12.3781 21.7336 12.7219 20.9524C13.05 20.1555 13.2141 19.3118 13.2141 18.4211C13.2141 17.5305 13.05 16.6946 12.7219 15.9133C12.3781 15.1321 11.9133 14.4485 11.3273 13.8625C10.7414 13.2766 10.0578 12.8118 9.27657 12.468C8.49532 12.1399 7.65938 11.9758 6.76875 11.9758ZM6.76875 12.7727C7.55 12.7727 8.28438 12.9211 8.97188 13.218C9.65938 13.5149 10.257 13.9172 10.7648 14.425C11.2727 14.9329 11.675 15.5305 11.9719 16.218C12.2688 16.9055 12.4172 17.6399 12.4172 18.4211C12.4172 19.2024 12.2688 19.9368 11.9719 20.6243C11.675 21.3118 11.2727 21.9133 10.7648 22.429C10.257 22.9446 9.65938 23.3508 8.97188 23.6477C8.28438 23.9446 7.55 24.093 6.76875 24.093C5.9875 24.093 5.25313 23.9446 4.56563 23.6477C3.87813 23.3508 3.27657 22.9446 2.76094 22.429C2.24532 21.9133 1.83907 21.3118 1.54219 20.6243C1.24532 19.9368 1.09688 19.2024 1.09688 18.4211C1.09688 17.6399 1.24532 16.9055 1.54219 16.218C1.83907 15.5305 2.24532 14.9329 2.76094 14.425C3.27657 13.9172 3.87813 13.5149 4.56563 13.218C5.25313 12.9211 5.9875 12.7727 6.76875 12.7727ZM10.2609 6.42114C9.76094 6.42114 9.2961 6.55005 8.86641 6.80786C8.43672 7.06567 8.09688 7.41333 7.84688 7.85083L6.55782 10.1243C6.58907 10.1243 6.62422 10.1243 6.66328 10.1243C6.70235 10.1243 6.7375 10.1243 6.76875 10.1243C7.90938 10.1243 8.97969 10.343 9.97969 10.7805C10.9953 11.218 11.8781 11.8118 12.6281 12.5618C13.3781 13.3118 13.9719 14.1946 14.4094 15.2102C14.8469 16.2102 15.0656 17.2805 15.0656 18.4211C15.0656 18.5618 15.0617 18.7024 15.0539 18.843C15.0461 18.9836 15.0344 19.1243 15.0188 19.2649C15.3781 19.1711 15.7102 19.011 16.0148 18.7844C16.3195 18.5579 16.5656 18.2727 16.7531 17.929L18.8156 14.2493C18.9406 14.0461 19.0305 13.8313 19.0852 13.6047C19.1398 13.3782 19.1672 13.1399 19.1672 12.8899C19.1672 12.6399 19.1398 12.4016 19.0852 12.175C19.0305 11.9485 18.9406 11.7336 18.8156 11.5305L16.7531 7.82739C16.5031 7.40552 16.1633 7.06567 15.7336 6.80786C15.3039 6.55005 14.8391 6.42114 14.3391 6.42114H10.2609ZM10.2609 7.21802H14.3391C14.6984 7.21802 15.0305 7.30786 15.3352 7.48755C15.6398 7.66724 15.8781 7.91333 16.05 8.22583L18.1125 11.9055C18.2063 12.0618 18.2727 12.2219 18.3117 12.386C18.3508 12.55 18.3703 12.718 18.3703 12.8899C18.3703 13.0618 18.3508 13.2297 18.3117 13.3938C18.2727 13.5579 18.2141 13.718 18.1359 13.8743L16.05 17.5305C16.0344 17.5774 16.0109 17.6204 15.9797 17.6594C15.9484 17.6985 15.9172 17.7415 15.8859 17.7883L15.8391 17.8352V17.718C15.7609 16.6399 15.5031 15.6321 15.0656 14.6946C14.6281 13.7415 14.0578 12.8938 13.3547 12.1516C12.6516 11.4094 11.8313 10.7961 10.8938 10.3118C9.97188 9.84302 8.97969 9.53833 7.91719 9.39771H7.89375L8.55 8.22583C8.70625 7.94458 8.925 7.71411 9.20625 7.53442C9.4875 7.35474 9.79219 7.25708 10.1203 7.24146L10.2609 7.21802ZM14.1516 0.889893C13.3859 0.889893 12.7336 1.15942 12.1945 1.69849C11.6555 2.23755 11.3859 2.88989 11.3859 3.65552V4.59302H14.3391C15.1828 4.59302 15.9641 4.80005 16.6828 5.21411C17.4016 5.62817 17.9563 6.20239 18.3469 6.93677L20.4328 10.6165C20.6359 10.9602 20.7844 11.3235 20.8781 11.7063C20.9719 12.0891 21.0188 12.4836 21.0188 12.8899C21.0188 13.0461 21.0109 13.2024 20.9953 13.3586C20.9797 13.5149 20.9563 13.6633 20.925 13.804H21.5344C22.3 13.804 22.9523 13.5344 23.4914 12.9954C24.0305 12.4563 24.3 11.804 24.3 11.0383V3.65552C24.3 2.88989 24.0305 2.23755 23.4914 1.69849C22.9523 1.15942 22.3 0.889893 21.5344 0.889893H14.1516ZM14.1516 1.68677H21.5344C22.0813 1.68677 22.5461 1.87817 22.9289 2.26099C23.3117 2.6438 23.5031 3.10864 23.5031 3.65552V11.0383C23.5031 11.5227 23.3508 11.9446 23.0461 12.304C22.7414 12.6633 22.3625 12.8899 21.9094 12.9836H21.8156V12.8899C21.8156 12.6711 21.8039 12.4563 21.7805 12.2454C21.757 12.0344 21.7219 11.8274 21.675 11.6243L21.6281 11.4133H21.8156L19.05 6.53833C18.5813 5.69458 17.925 5.02271 17.0813 4.52271C16.2375 4.02271 15.3234 3.77271 14.3391 3.77271H12.1828V3.65552C12.1828 3.13989 12.3586 2.69067 12.7102 2.30786C13.0617 1.92505 13.4953 1.71802 14.0109 1.68677H14.1516Z" fill="#4A6CA8"/>
</svg>
