<svg width="25" height="25" viewBox="0 0 25 25" fill="none" xmlns="http://www.w3.org/2000/svg">
<path d="M10.0031 24.5383C9.78436 24.5852 9.5578 24.6165 9.32343 24.6321C9.08905 24.6477 8.84686 24.6555 8.59686 24.6555C7.45624 24.6555 6.38593 24.4446 5.38593 24.0227C4.3703 23.5852 3.48749 22.9993 2.73749 22.2649C1.98749 21.5305 1.39374 20.6711 0.956238 19.6868C0.518738 18.6868 0.299988 17.6321 0.299988 16.5227C0.299988 15.5227 0.479675 14.5618 0.83905 13.6399C1.19843 12.718 1.69843 11.8899 2.33905 11.1555C2.5578 12.3274 2.97577 13.4055 3.59296 14.3899C4.21014 15.3743 4.96405 16.2336 5.85468 16.968C5.88593 17.718 6.00311 18.4524 6.20624 19.1711C6.40936 19.8899 6.69061 20.5735 7.04999 21.2219C7.40936 21.8704 7.83905 22.4758 8.33905 23.0383C8.83905 23.6008 9.39374 24.1008 10.0031 24.5383ZM22.2609 11.1555C22.0422 12.3118 21.6281 13.3821 21.0187 14.3665C20.425 15.3508 19.6867 16.2024 18.8039 16.9211C17.9211 17.6399 16.925 18.2024 15.8156 18.6086C14.7062 19.0149 13.5344 19.218 12.3 19.218C11.5031 19.218 10.7336 19.1321 9.99139 18.9602C9.24921 18.7883 8.54218 18.5461 7.8703 18.2336C8.1203 19.343 8.58905 20.3625 9.27655 21.2922C9.96405 22.2219 10.8156 22.9758 11.8312 23.554C12.4562 23.9133 13.1203 24.1868 13.8234 24.3743C14.5266 24.5618 15.2531 24.6555 16.0031 24.6555C17.1437 24.6555 18.2141 24.4446 19.2141 24.0227C20.2297 23.5852 21.1125 22.9993 21.8625 22.2649C22.6125 21.5305 23.2062 20.6711 23.6437 19.6868C24.0812 18.6868 24.3 17.6321 24.3 16.5227C24.3 15.5227 24.1203 14.5657 23.7609 13.6516C23.4016 12.7375 22.9016 11.9055 22.2609 11.1555ZM12.3 17.4133C13.4406 17.4133 14.5187 17.2024 15.5344 16.7805C16.5344 16.343 17.4133 15.7571 18.1711 15.0227C18.9289 14.2883 19.5266 13.429 19.9641 12.4446C20.3859 11.4446 20.5969 10.3821 20.5969 9.25708C20.5969 8.14771 20.3859 7.09302 19.9641 6.09302C19.5266 5.10864 18.9289 4.24536 18.1711 3.50317C17.4133 2.76099 16.5344 2.17896 15.5344 1.75708C14.5187 1.33521 13.4406 1.12427 12.3 1.12427C11.1594 1.12427 10.0812 1.33521 9.06561 1.75708C8.06561 2.17896 7.18671 2.76099 6.42889 3.50317C5.67108 4.24536 5.07343 5.10864 4.63593 6.09302C4.21405 7.09302 4.00311 8.14771 4.00311 9.25708C4.00311 10.3821 4.21405 11.4446 4.63593 12.4446C5.07343 13.429 5.67108 14.2883 6.42889 15.0227C7.18671 15.7571 8.06561 16.343 9.06561 16.7805C10.0812 17.2024 11.1594 17.4133 12.3 17.4133Z" fill="#4A6CA8"/>
</svg>
