<svg width="25" height="25" viewBox="0 0 25 25" fill="none" xmlns="http://www.w3.org/2000/svg">
<path d="M21.3703 16.8274C21.5734 17.0618 21.7258 17.3118 21.8273 17.5774C21.9289 17.843 21.9797 18.1243 21.9797 18.4211C21.9797 18.8743 21.8586 19.3 21.6164 19.6985C21.3742 20.0969 21.0344 20.4211 20.5969 20.6711L14.0578 24.4446C13.7922 24.5852 13.5109 24.6946 13.2141 24.7727C12.9172 24.8508 12.6125 24.8899 12.3 24.8899C11.9875 24.8899 11.6828 24.8508 11.3859 24.7727C11.0891 24.6946 10.8078 24.5852 10.5422 24.4446L4.00311 20.6711C3.56561 20.4211 3.22577 20.0969 2.98358 19.6985C2.74139 19.3 2.6203 18.8743 2.6203 18.4211C2.6203 18.1243 2.67108 17.843 2.77264 17.5774C2.87421 17.3118 3.01874 17.0618 3.20624 16.8274L9.60468 20.5071C10.0109 20.7258 10.4406 20.8938 10.8937 21.011C11.3469 21.1282 11.8156 21.1868 12.3 21.1868C12.7844 21.1868 13.2531 21.1282 13.7062 21.011C14.1594 20.8938 14.5969 20.718 15.0187 20.4836L21.3703 16.8274ZM15.0187 14.9524C14.5969 15.1868 14.1594 15.3625 13.7062 15.4797C13.2531 15.5969 12.7844 15.6555 12.3 15.6555C11.8156 15.6555 11.3469 15.5969 10.8937 15.4797C10.4406 15.3625 10.0109 15.1868 9.60468 14.9524L3.20624 11.2961C3.01874 11.5149 2.87421 11.761 2.77264 12.0344C2.67108 12.3079 2.6203 12.593 2.6203 12.8899C2.6203 13.343 2.74139 13.7688 2.98358 14.1672C3.22577 14.5657 3.56561 14.8899 4.00311 15.1399L10.5422 18.8899C10.8078 19.0461 11.0891 19.1633 11.3859 19.2415C11.6828 19.3196 11.9875 19.3586 12.3 19.3586C12.6125 19.3586 12.9172 19.3196 13.2141 19.2415C13.5109 19.1633 13.7922 19.0461 14.0578 18.8899L20.5969 15.1399C21.0344 14.8899 21.3742 14.5657 21.6164 14.1672C21.8586 13.7688 21.9797 13.343 21.9797 12.8899C21.9797 12.593 21.9289 12.3079 21.8273 12.0344C21.7258 11.761 21.5734 11.5149 21.3703 11.2961L15.0187 14.9524ZM4.00311 9.60864L10.5422 13.3586C10.8078 13.5149 11.0891 13.6282 11.3859 13.6985C11.6828 13.7688 11.9875 13.804 12.3 13.804C12.6125 13.804 12.9172 13.7649 13.2141 13.6868C13.5109 13.6086 13.7922 13.4993 14.0578 13.3586L20.5969 9.60864C21.0344 9.35864 21.3742 9.03442 21.6164 8.63599C21.8586 8.23755 21.9797 7.81177 21.9797 7.35864C21.9797 6.90552 21.8586 6.47974 21.6164 6.0813C21.3742 5.68286 21.0344 5.35864 20.5969 5.10864L14.0578 1.35864C13.5266 1.04614 12.9406 0.889893 12.3 0.889893C11.6594 0.889893 11.0734 1.04614 10.5422 1.35864L4.00311 5.10864C3.56561 5.35864 3.22577 5.68286 2.98358 6.0813C2.74139 6.47974 2.6203 6.90552 2.6203 7.35864C2.6203 7.81177 2.74139 8.23755 2.98358 8.63599C3.22577 9.03442 3.56561 9.35864 4.00311 9.60864Z" fill="#4A6CA8"/>
</svg>
