<svg width="14" height="14" viewBox="0 0 14 14" fill="none" xmlns="http://www.w3.org/2000/svg">
<path d="M12.9832 5.22946C12.9832 5.22946 12.9821 5.16194 12.9801 5.02691C12.978 4.89188 12.9688 4.65659 12.9525 4.32106C12.9361 3.98552 12.9034 3.69704 12.8543 3.45562C12.8052 3.2142 12.7397 2.99528 12.6579 2.79887C12.576 2.58609 12.4758 2.38558 12.3571 2.19736C12.2384 2.00913 12.0973 1.83727 11.9336 1.68177C11.7781 1.52628 11.6062 1.38716 11.418 1.2644C11.2298 1.14164 11.0293 1.03934 10.8165 0.957506C10.6201 0.883852 10.4012 0.820427 10.1597 0.767232C9.91832 0.714038 9.62984 0.679256 9.2943 0.662889C8.95876 0.646521 8.65596 0.636292 8.3859 0.632199C8.11583 0.628107 7.55524 0.626061 6.70412 0.626061C5.853 0.626061 5.29241 0.628107 5.02235 0.632199C4.75228 0.636292 4.44948 0.646521 4.11394 0.662889C3.7784 0.679256 3.48992 0.711991 3.2485 0.761094C3.00708 0.810198 2.78816 0.875668 2.59175 0.957506C2.37897 1.03934 2.17847 1.1396 1.99024 1.25826C1.80201 1.37693 1.63015 1.5181 1.47466 1.68177C1.31098 1.83727 1.16776 2.00913 1.04501 2.19736C0.92225 2.38558 0.824044 2.58609 0.75039 2.79887C0.668552 2.99528 0.603081 3.2142 0.553978 3.45562C0.504875 3.69704 0.47214 3.98552 0.455773 4.32106C0.439405 4.65659 0.429175 4.95939 0.425083 5.22946C0.420991 5.49953 0.418945 6.06012 0.418945 6.91124C0.418945 7.76235 0.420991 8.32295 0.425083 8.59301C0.429175 8.86308 0.439405 9.16588 0.455773 9.50142C0.47214 9.83695 0.504875 10.1254 0.553978 10.3669C0.603081 10.6083 0.668552 10.8272 0.75039 11.0236C0.824044 11.2364 0.92225 11.4369 1.04501 11.6251C1.16776 11.8133 1.31098 11.9852 1.47466 12.1407C1.63015 12.3044 1.80201 12.4476 1.99024 12.5703C2.17847 12.6931 2.37488 12.7913 2.57947 12.865C2.78407 12.9468 3.00708 13.0123 3.2485 13.0614C3.48992 13.1105 3.7784 13.1432 4.11394 13.1596C4.44948 13.176 4.75023 13.1862 5.01621 13.1903C5.28218 13.1944 5.84482 13.1964 6.70412 13.1964C7.55524 13.1964 8.11583 13.1944 8.3859 13.1903C8.65596 13.1862 8.95876 13.176 9.2943 13.1596C9.62984 13.1432 9.91832 13.1105 10.1597 13.0614C10.4012 13.0123 10.6201 12.9468 10.8165 12.865C11.242 12.7013 11.6144 12.4599 11.9336 12.1407C12.2528 11.8215 12.4942 11.4492 12.6579 11.0236C12.7315 10.8272 12.7949 10.6083 12.8481 10.3669C12.9013 10.1254 12.9361 9.83695 12.9525 9.50142C12.9607 9.16588 12.9688 8.86308 12.977 8.59301C12.9852 8.32295 12.9893 7.76235 12.9893 6.91124C12.9893 6.06012 12.9872 5.49953 12.9832 5.22946ZM11.8231 9.45231C11.8067 9.7633 11.776 10.0088 11.731 10.1889C11.686 10.3689 11.6431 10.5121 11.6021 10.6185C11.4957 10.8968 11.3382 11.1382 11.1295 11.3428C10.9208 11.5474 10.6815 11.7029 10.4114 11.8093C10.2968 11.8584 10.1495 11.9034 9.96947 11.9443C9.78942 11.9852 9.548 12.0138 9.2452 12.0302C8.90966 12.0466 8.613 12.0568 8.35521 12.0609C8.09742 12.065 7.54705 12.067 6.70412 12.067C5.86937 12.067 5.32105 12.065 5.05917 12.0609C4.79729 12.0568 4.49858 12.0466 4.16304 12.0302C3.86024 12.0138 3.61882 11.9852 3.43878 11.9443C3.25873 11.9034 3.11142 11.8584 2.99685 11.8093C2.86591 11.7602 2.73906 11.6967 2.6163 11.619C2.49354 11.5412 2.37897 11.4492 2.27258 11.3428C2.17438 11.2446 2.08435 11.1341 2.00251 11.0113C1.92068 10.8886 1.85521 10.7576 1.8061 10.6185C1.76518 10.5121 1.72222 10.3689 1.67721 10.1889C1.6322 10.0088 1.6056 9.7633 1.59742 9.45231C1.58105 9.12496 1.57082 8.83034 1.56673 8.56846C1.56263 8.30658 1.56059 7.75417 1.56059 6.91124C1.56059 6.07649 1.56263 5.52817 1.56673 5.26629C1.57082 5.00441 1.58105 4.70979 1.59742 4.38244C1.6056 4.07145 1.6322 3.82594 1.67721 3.64589C1.72222 3.46585 1.76518 3.32263 1.8061 3.21624C1.85521 3.07712 1.92068 2.94617 2.00251 2.82342C2.08435 2.70066 2.17847 2.59018 2.28486 2.49197C2.38306 2.38558 2.49354 2.29352 2.6163 2.21577C2.73906 2.13802 2.86591 2.0746 2.99685 2.02549C3.11142 1.97639 3.25873 1.93138 3.43878 1.89046C3.61882 1.84954 3.86024 1.8209 4.16304 1.80453C4.49858 1.78816 4.79729 1.77793 5.05917 1.77384C5.32105 1.76975 5.86937 1.7677 6.70412 1.7677C7.54705 1.7677 8.09946 1.76975 8.36134 1.77384C8.62323 1.77793 8.91784 1.78816 9.2452 1.80453C9.55618 1.8209 9.8017 1.84954 9.98174 1.89046C10.1618 1.93138 10.305 1.97639 10.4114 2.02549C10.5505 2.0746 10.6815 2.13802 10.8042 2.21577C10.927 2.29352 11.0375 2.38558 11.1357 2.49197C11.242 2.59018 11.3341 2.70066 11.4119 2.82342C11.4896 2.94617 11.553 3.07712 11.6021 3.21624C11.6431 3.32263 11.686 3.46585 11.731 3.64589C11.776 3.82594 11.8067 4.07145 11.8231 4.38244C11.8395 4.70979 11.8497 5.00441 11.8538 5.26629C11.8579 5.52817 11.8599 6.07649 11.8599 6.91124C11.8599 7.75417 11.8579 8.30658 11.8538 8.56846C11.8497 8.83034 11.8395 9.12496 11.8231 9.45231ZM6.70412 3.68272C6.25401 3.68272 5.83664 3.76865 5.452 3.94051C5.05917 4.10419 4.71545 4.33333 4.42083 4.62795C4.12622 4.92257 3.89707 5.26629 3.73339 5.65911C3.56153 6.05194 3.4756 6.46931 3.4756 6.91124C3.4756 7.36135 3.56153 7.77872 3.73339 8.16336C3.89707 8.55618 4.12622 8.8999 4.42083 9.19452C4.71545 9.48914 5.05917 9.71829 5.452 9.88196C5.83664 10.0538 6.25401 10.1398 6.70412 10.1398C7.14605 10.1398 7.56342 10.0538 7.95624 9.88196C8.34907 9.71829 8.69279 9.48914 8.98741 9.19452C9.28202 8.8999 9.51117 8.55618 9.67485 8.16336C9.84671 7.77872 9.93264 7.36135 9.93264 6.91124C9.93264 6.46931 9.84671 6.05194 9.67485 5.65911C9.51117 5.26629 9.28202 4.92257 8.98741 4.62795C8.69279 4.33333 8.34907 4.10419 7.95624 3.94051C7.56342 3.76865 7.14605 3.68272 6.70412 3.68272ZM8.18948 8.3966C8.18948 8.3966 8.08719 8.4989 7.88259 8.70349C7.67799 8.90809 7.28517 9.01039 6.70412 9.01039C6.12307 9.01039 5.62795 8.80579 5.21876 8.3966C4.80957 7.98741 4.60497 7.49229 4.60497 6.91124C4.60497 6.33018 4.80957 5.83506 5.21876 5.42587C5.62795 5.01668 6.12307 4.81209 6.70412 4.81209C7.28517 4.81209 7.78029 5.01668 8.18948 5.42587C8.59867 5.83506 8.80327 6.33018 8.80327 6.91124C8.80327 7.49229 8.59867 7.98741 8.18948 8.3966ZM10.8165 3.55996C10.8165 3.76456 10.7428 3.94051 10.5955 4.08782C10.4482 4.23513 10.2682 4.30878 10.0554 4.30878C9.8508 4.30878 9.67485 4.23513 9.52754 4.08782C9.38023 3.94051 9.30658 3.76456 9.30658 3.55996C9.30658 3.34718 9.38023 3.16714 9.52754 3.01983C9.67485 2.87252 9.8508 2.79887 10.0554 2.79887C10.2682 2.79887 10.4482 2.87252 10.5955 3.01983C10.7428 3.16714 10.8165 3.34718 10.8165 3.55996Z" fill="white"/>
</svg>
