<svg width="25" height="25" viewBox="0 0 25 25" fill="none" xmlns="http://www.w3.org/2000/svg">
<path d="M12.5 20C17.8859 20 22.25 15.6359 22.25 10.25C22.25 4.86406 17.8859 0.5 12.5 0.5C7.11406 0.5 2.75 4.86406 2.75 10.25C2.75 15.6359 7.11406 20 12.5 20ZM11.4594 5.06563V4.27812C11.4594 3.84687 11.8062 3.5 12.2375 3.5H12.7578C13.1891 3.5 13.5359 3.84687 13.5359 4.27812V5.075C14.2625 5.1125 14.9656 5.36094 15.5516 5.79688C15.8141 5.98906 15.8422 6.37344 15.6078 6.59844L14.8438 7.325C14.6656 7.49844 14.3984 7.50313 14.1875 7.37188C13.9344 7.2125 13.6531 7.13281 13.3531 7.13281H11.5297C11.1078 7.13281 10.7656 7.51719 10.7656 7.99063C10.7656 8.375 11 8.71719 11.3328 8.81562L14.2531 9.69219C15.4578 10.0531 16.3016 11.2109 16.3016 12.5094C16.3016 14.1031 15.0641 15.3922 13.5312 15.4344V16.2219C13.5312 16.6531 13.1844 17 12.7531 17H12.2328C11.8016 17 11.4547 16.6531 11.4547 16.2219V15.425C10.7281 15.3875 10.025 15.1391 9.43906 14.7031C9.17656 14.5109 9.14844 14.1266 9.38281 13.9016L10.1469 13.175C10.325 13.0016 10.5922 12.9969 10.8031 13.1281C11.0563 13.2875 11.3375 13.3672 11.6375 13.3672H13.4609C13.8828 13.3672 14.225 12.9828 14.225 12.5094C14.225 12.125 13.9906 11.7828 13.6578 11.6844L10.7375 10.8078C9.53281 10.4469 8.68906 9.28906 8.68906 7.99063C8.69375 6.39688 9.92656 5.10781 11.4594 5.06563ZM23 17H21.4766C20.5578 18.2188 19.3859 19.2359 18.0547 20H21.0453C21.2937 20 21.4953 20.1688 21.4953 20.375V21.125C21.4953 21.3312 21.2937 21.5 21.0453 21.5H3.95C3.70156 21.5 3.5 21.3312 3.5 21.125V20.375C3.5 20.1688 3.70156 20 3.95 20H6.94062C5.60937 19.2359 4.44219 18.2188 3.51875 17H2C1.17031 17 0.5 17.6703 0.5 18.5V23C0.5 23.8297 1.17031 24.5 2 24.5H23C23.8297 24.5 24.5 23.8297 24.5 23V18.5C24.5 17.6703 23.8297 17 23 17Z" fill="#A3B9E0"/>
</svg>
