<svg width="31" height="30" viewBox="0 0 31 30" fill="none" xmlns="http://www.w3.org/2000/svg">
<rect x="0.890625" width="30" height="30" rx="15" fill="#F6F5F2"/>
<path d="M15.8906 8C16.1367 8 16.3441 8.08431 16.5127 8.25293C16.6813 8.42155 16.7656 8.62891 16.7656 8.875V21.125C16.7656 21.3711 16.6813 21.5785 16.5127 21.7471C16.3441 21.9157 16.1367 22 15.8906 22C15.6445 22 15.4372 21.9157 15.2686 21.7471C15.0999 21.5785 15.0156 21.3711 15.0156 21.125V8.875C15.0156 8.62891 15.0999 8.42155 15.2686 8.25293C15.4372 8.08431 15.6445 8 15.8906 8ZM22.0156 14.125C22.2617 14.125 22.4691 14.2093 22.6377 14.3779C22.8063 14.5465 22.8906 14.7539 22.8906 15C22.8906 15.2461 22.8063 15.4535 22.6377 15.6221C22.4691 15.7907 22.2617 15.875 22.0156 15.875H9.76562C9.51953 15.875 9.31217 15.7907 9.14355 15.6221C8.97493 15.4535 8.89062 15.2461 8.89062 15C8.89062 14.7539 8.97493 14.5465 9.14355 14.3779C9.31217 14.2093 9.51953 14.125 9.76562 14.125H22.0156Z" fill="#1C4B42"/>
</svg>
