<svg width="13" height="12" viewBox="0 0 13 12" fill="none" xmlns="http://www.w3.org/2000/svg">
<path d="M0.80499 11.3814C0.620615 11.1894 0.532268 10.9627 0.539951 10.7015C0.547633 10.4403 0.643662 10.2214 0.828037 10.0447L9.03272 2.22028H2.47589C2.23005 2.22028 2.01879 2.13962 1.8421 1.97829C1.66541 1.81696 1.56554 1.61722 1.54249 1.37907L1.53097 1.27536C1.53097 1.01416 1.62315 0.791377 1.80753 0.607002C1.9919 0.422627 2.21469 0.33044 2.47589 0.33044H11.4411C11.4488 0.33044 11.4565 0.33044 11.4642 0.33044C11.4719 0.33044 11.4795 0.33044 11.4872 0.33044H11.395C11.4258 0.33044 11.4546 0.33044 11.4815 0.33044C11.5083 0.33044 11.5372 0.334281 11.5679 0.341963C11.5679 0.341963 11.5698 0.341963 11.5736 0.341963C11.5775 0.341963 11.5832 0.345804 11.5909 0.353487C11.6063 0.353487 11.6197 0.355408 11.6313 0.359248C11.6428 0.36309 11.6524 0.36501 11.6601 0.36501C11.6678 0.36501 11.6754 0.366931 11.6831 0.370771C11.6908 0.374613 11.6985 0.376534 11.7062 0.376534C11.7138 0.384216 11.7215 0.389977 11.7292 0.393819C11.7369 0.39766 11.7446 0.39958 11.7523 0.39958C11.7599 0.39958 11.7695 0.401501 11.7811 0.405342C11.7926 0.409184 11.8022 0.414945 11.8099 0.422627C11.856 0.445674 11.9021 0.474483 11.9482 0.509053C11.9942 0.543623 12.0365 0.580114 12.0749 0.618526L12.098 0.641573C12.1056 0.649255 12.1133 0.658858 12.121 0.670382C12.1287 0.681905 12.1364 0.691507 12.1441 0.69919L12.0749 0.618526C12.098 0.641573 12.1172 0.660778 12.1325 0.676143C12.1479 0.691507 12.1594 0.710713 12.1671 0.73376C12.1748 0.741443 12.1825 0.751045 12.1901 0.762568C12.1978 0.774093 12.2055 0.783695 12.2132 0.791377C12.2132 0.79906 12.2151 0.806742 12.219 0.814425C12.2228 0.822106 12.2247 0.825948 12.2247 0.825948C12.2324 0.83363 12.2382 0.843233 12.242 0.854756C12.2458 0.86628 12.2516 0.875882 12.2593 0.883565C12.2593 0.891247 12.2612 0.89893 12.265 0.906611C12.2689 0.914294 12.2747 0.925817 12.2823 0.941182C12.2823 0.948864 12.2843 0.956547 12.2881 0.964229C12.2919 0.971911 12.2939 0.979593 12.2939 0.987276C12.2939 0.994958 12.2958 1.00264 12.2996 1.01032C12.3035 1.01801 12.3054 1.02953 12.3054 1.04489C12.3131 1.05258 12.3169 1.06026 12.3169 1.06794C12.3169 1.07562 12.3169 1.0833 12.3169 1.09099C12.3246 1.09867 12.3284 1.10827 12.3284 1.1198C12.3284 1.13132 12.3284 1.14092 12.3284 1.1486C12.3284 1.15629 12.3303 1.16397 12.3342 1.17165C12.338 1.17933 12.34 1.18702 12.34 1.1947C12.34 1.21006 12.34 1.22159 12.34 1.22927C12.34 1.23695 12.34 1.24847 12.34 1.26384C12.34 1.26384 12.34 1.26576 12.34 1.2696C12.34 1.27344 12.34 1.27536 12.34 1.27536V9.77966C12.34 10.0409 12.2478 10.2636 12.0634 10.448C11.879 10.6324 11.6562 10.7246 11.395 10.7246C11.1338 10.7246 10.911 10.6324 10.7267 10.448C10.5423 10.2636 10.4501 10.0409 10.4501 9.77966V3.48786L2.14171 11.416C1.94965 11.5927 1.72302 11.6772 1.46183 11.6695C1.20063 11.6618 0.981682 11.5658 0.80499 11.3814Z" fill="#F6F5F2"/>
</svg>
