<svg xmlns="http://www.w3.org/2000/svg" xmlns:xlink="http://www.w3.org/1999/xlink" width="125" zoomAndPan="magnify" viewBox="0 0 93.75 56.249996" height="75" preserveAspectRatio="xMidYMid meet" version="1.0"><defs><g/><clipPath id="08127b3dd8"><path d="M 25.519531 16.421875 L 33.902344 16.421875 L 33.902344 24.808594 L 25.519531 24.808594 Z M 25.519531 16.421875 " clip-rule="nonzero"/></clipPath><clipPath id="3807e37c42"><path d="M 29.710938 16.421875 C 27.398438 16.421875 25.519531 18.300781 25.519531 20.613281 C 25.519531 22.929688 27.398438 24.808594 29.710938 24.808594 C 32.027344 24.808594 33.902344 22.929688 33.902344 20.613281 C 33.902344 18.300781 32.027344 16.421875 29.710938 16.421875 Z M 29.710938 16.421875 " clip-rule="nonzero"/></clipPath><clipPath id="12bc7811f8"><path d="M 25.554688 20.636719 L 28.273438 20.636719 L 28.273438 28.800781 L 25.554688 28.800781 Z M 25.554688 20.636719 " clip-rule="nonzero"/></clipPath><clipPath id="ab2ea2fe04"><path d="M 27.933594 18.835938 L 31.492188 18.835938 L 31.492188 22.394531 L 27.933594 22.394531 Z M 27.933594 18.835938 " clip-rule="nonzero"/></clipPath><clipPath id="e2f375675e"><path d="M 29.710938 18.835938 C 28.730469 18.835938 27.933594 19.632812 27.933594 20.613281 C 27.933594 21.597656 28.730469 22.394531 29.710938 22.394531 C 30.695312 22.394531 31.492188 21.597656 31.492188 20.613281 C 31.492188 19.632812 30.695312 18.835938 29.710938 18.835938 Z M 29.710938 18.835938 " clip-rule="nonzero"/></clipPath></defs><g fill="#ffffff" fill-opacity="1"><g transform="translate(33.903224, 27.117618)"><g><path d="M 0.34375 -4.296875 L 1.515625 -4.296875 L 1.515625 -2.03125 C 1.515625 -1.695312 1.582031 -1.4375 1.71875 -1.25 C 1.851562 -1.0625 2.117188 -0.96875 2.515625 -0.96875 C 3.234375 -0.96875 3.59375 -1.363281 3.59375 -2.15625 L 3.59375 -4.296875 L 4.765625 -4.296875 L 4.765625 0 L 3.59375 0 L 3.59375 -0.578125 C 3.445312 -0.359375 3.253906 -0.1875 3.015625 -0.0625 C 2.785156 0.0625 2.5 0.125 2.15625 0.125 C 1.757812 0.125 1.425781 0.0625 1.15625 -0.0625 C 0.882812 -0.195312 0.679688 -0.410156 0.546875 -0.703125 C 0.410156 -1.003906 0.34375 -1.410156 0.34375 -1.921875 Z M 0.34375 -4.296875 "/></g></g></g><g fill="#ffffff" fill-opacity="1"><g transform="translate(39.105509, 27.117618)"><g><path d="M 1.609375 0 L 0.4375 0 L 0.4375 -4.296875 L 1.609375 -4.296875 L 1.609375 -3.71875 C 1.742188 -3.945312 1.910156 -4.117188 2.109375 -4.234375 C 2.316406 -4.359375 2.5625 -4.421875 2.84375 -4.421875 C 3.34375 -4.421875 3.726562 -4.269531 4 -3.96875 C 4.28125 -3.675781 4.421875 -3.207031 4.421875 -2.5625 L 3.375 -2.5625 C 3.375 -2.789062 3.300781 -2.972656 3.15625 -3.109375 C 3.019531 -3.253906 2.820312 -3.328125 2.5625 -3.328125 C 2.257812 -3.328125 2.023438 -3.226562 1.859375 -3.03125 C 1.691406 -2.832031 1.609375 -2.539062 1.609375 -2.15625 Z M 1.609375 0 "/></g></g></g><g fill="#ffffff" fill-opacity="1"><g transform="translate(43.705878, 27.117618)"><g><path d="M 1.609375 1.71875 L 0.4375 1.71875 L 0.4375 -4.296875 L 1.609375 -4.296875 L 1.609375 -3.71875 C 1.722656 -3.945312 1.882812 -4.117188 2.09375 -4.234375 C 2.3125 -4.359375 2.59375 -4.421875 2.9375 -4.421875 C 3.507812 -4.421875 3.972656 -4.226562 4.328125 -3.84375 C 4.679688 -3.46875 4.859375 -2.90625 4.859375 -2.15625 C 4.859375 -1.65625 4.769531 -1.234375 4.59375 -0.890625 C 4.414062 -0.554688 4.179688 -0.300781 3.890625 -0.125 C 3.597656 0.0390625 3.269531 0.125 2.90625 0.125 C 2.5625 0.125 2.285156 0.0546875 2.078125 -0.078125 C 1.878906 -0.210938 1.722656 -0.390625 1.609375 -0.609375 Z M 3.640625 -2.15625 C 3.640625 -2.539062 3.5625 -2.832031 3.40625 -3.03125 C 3.25 -3.226562 2.988281 -3.328125 2.625 -3.328125 C 1.945312 -3.328125 1.609375 -2.9375 1.609375 -2.15625 C 1.609375 -1.363281 1.945312 -0.96875 2.625 -0.96875 C 2.945312 -0.96875 3.195312 -1.066406 3.375 -1.265625 C 3.550781 -1.472656 3.640625 -1.769531 3.640625 -2.15625 Z M 3.640625 -2.15625 "/></g></g></g><g fill="#ffffff" fill-opacity="1"><g transform="translate(48.822176, 27.117618)"><g><path d="M 0.265625 -2.15625 C 0.265625 -2.90625 0.460938 -3.46875 0.859375 -3.84375 C 1.253906 -4.226562 1.863281 -4.421875 2.6875 -4.421875 C 3.5 -4.421875 4.101562 -4.226562 4.5 -3.84375 C 4.90625 -3.46875 5.109375 -2.90625 5.109375 -2.15625 C 5.109375 -1.40625 4.90625 -0.835938 4.5 -0.453125 C 4.101562 -0.0664062 3.5 0.125 2.6875 0.125 C 1.863281 0.125 1.253906 -0.0664062 0.859375 -0.453125 C 0.460938 -0.835938 0.265625 -1.40625 0.265625 -2.15625 Z M 1.484375 -2.15625 C 1.484375 -1.363281 1.882812 -0.96875 2.6875 -0.96875 C 3.488281 -0.96875 3.890625 -1.363281 3.890625 -2.15625 C 3.890625 -2.9375 3.488281 -3.328125 2.6875 -3.328125 C 2.25 -3.328125 1.9375 -3.226562 1.75 -3.03125 C 1.570312 -2.832031 1.484375 -2.539062 1.484375 -2.15625 Z M 1.484375 -2.15625 "/></g></g></g><g fill="#ffffff" fill-opacity="1"><g transform="translate(54.196437, 27.117618)"><g><path d="M 0.265625 -3.078125 C 0.265625 -3.554688 0.425781 -3.898438 0.75 -4.109375 C 1.082031 -4.316406 1.597656 -4.421875 2.296875 -4.421875 C 3.066406 -4.421875 3.625 -4.296875 3.96875 -4.046875 C 4.320312 -3.796875 4.5 -3.394531 4.5 -2.84375 L 3.421875 -2.84375 C 3.421875 -3.070312 3.3125 -3.226562 3.09375 -3.3125 C 2.875 -3.40625 2.535156 -3.453125 2.078125 -3.453125 C 1.734375 -3.453125 1.507812 -3.414062 1.40625 -3.34375 C 1.300781 -3.269531 1.25 -3.191406 1.25 -3.109375 C 1.25 -3.003906 1.347656 -2.914062 1.546875 -2.84375 C 1.742188 -2.769531 2.0625 -2.695312 2.5 -2.625 C 2.789062 -2.582031 3.0625 -2.535156 3.3125 -2.484375 C 3.570312 -2.429688 3.789062 -2.359375 3.96875 -2.265625 C 4.15625 -2.179688 4.296875 -2.054688 4.390625 -1.890625 C 4.492188 -1.734375 4.546875 -1.515625 4.546875 -1.234375 C 4.546875 -0.742188 4.375 -0.394531 4.03125 -0.1875 C 3.695312 0.0195312 3.195312 0.125 2.53125 0.125 C 1.75 0.125 1.175781 0 0.8125 -0.25 C 0.445312 -0.5 0.265625 -0.90625 0.265625 -1.46875 L 1.3125 -1.46875 C 1.3125 -1.238281 1.4375 -1.078125 1.6875 -0.984375 C 1.9375 -0.890625 2.273438 -0.84375 2.703125 -0.84375 C 3.003906 -0.84375 3.222656 -0.875 3.359375 -0.9375 C 3.492188 -1.007812 3.5625 -1.097656 3.5625 -1.203125 C 3.5625 -1.359375 3.453125 -1.457031 3.234375 -1.5 C 3.015625 -1.539062 2.695312 -1.59375 2.28125 -1.65625 C 2.050781 -1.675781 1.816406 -1.710938 1.578125 -1.765625 C 1.335938 -1.816406 1.117188 -1.894531 0.921875 -2 C 0.722656 -2.101562 0.5625 -2.238281 0.4375 -2.40625 C 0.320312 -2.582031 0.265625 -2.804688 0.265625 -3.078125 Z M 0.265625 -3.078125 "/></g></g></g><g fill="#ffffff" fill-opacity="1"><g transform="translate(59.003176, 27.117618)"><g><path d="M 4.78125 -1.984375 L 4.78125 -1.8125 L 1.5 -1.8125 C 1.539062 -1.445312 1.660156 -1.191406 1.859375 -1.046875 C 2.066406 -0.910156 2.335938 -0.84375 2.671875 -0.84375 C 2.960938 -0.84375 3.203125 -0.90625 3.390625 -1.03125 C 3.578125 -1.15625 3.671875 -1.300781 3.671875 -1.46875 L 4.734375 -1.46875 C 4.734375 -0.988281 4.554688 -0.601562 4.203125 -0.3125 C 3.847656 -0.0195312 3.335938 0.125 2.671875 0.125 C 1.859375 0.125 1.253906 -0.0664062 0.859375 -0.453125 C 0.460938 -0.835938 0.265625 -1.40625 0.265625 -2.15625 C 0.265625 -2.882812 0.457031 -3.441406 0.84375 -3.828125 C 1.226562 -4.222656 1.785156 -4.421875 2.515625 -4.421875 C 3.328125 -4.421875 3.90625 -4.21875 4.25 -3.8125 C 4.601562 -3.40625 4.78125 -2.796875 4.78125 -1.984375 Z M 1.53125 -2.640625 L 3.625 -2.640625 C 3.582031 -2.921875 3.460938 -3.125 3.265625 -3.25 C 3.078125 -3.382812 2.84375 -3.453125 2.5625 -3.453125 C 2.320312 -3.453125 2.109375 -3.382812 1.921875 -3.25 C 1.742188 -3.113281 1.613281 -2.910156 1.53125 -2.640625 Z M 1.53125 -2.640625 "/></g></g></g><g fill="#ffffff" fill-opacity="1"><g transform="translate(64.051583, 27.117618)"><g/></g></g><g fill="#ffffff" fill-opacity="1"><g transform="translate(27.310607, 35.944517)"><g><path d="M -0.171875 0 L 2.46875 -6.015625 L 2.953125 -6.015625 L 5.59375 0 L 5.109375 0 L 4.53125 -1.296875 L 0.875 -1.296875 L 0.3125 0 Z M 1.0625 -1.734375 L 4.34375 -1.734375 L 2.703125 -5.46875 Z M 1.0625 -1.734375 "/></g></g></g><g fill="#ffffff" fill-opacity="1"><g transform="translate(32.727864, 35.944517)"><g><path d="M 4.171875 0 L 4.171875 -0.703125 C 4.035156 -0.453125 3.828125 -0.25 3.546875 -0.09375 C 3.273438 0.0507812 2.90625 0.125 2.4375 0.125 C 2.03125 0.125 1.660156 0.0390625 1.328125 -0.125 C 0.992188 -0.300781 0.734375 -0.554688 0.546875 -0.890625 C 0.359375 -1.234375 0.265625 -1.65625 0.265625 -2.15625 C 0.265625 -2.90625 0.445312 -3.46875 0.8125 -3.84375 C 1.175781 -4.226562 1.707031 -4.421875 2.40625 -4.421875 C 2.882812 -4.421875 3.257812 -4.347656 3.53125 -4.203125 C 3.8125 -4.066406 4.023438 -3.875 4.171875 -3.625 L 4.171875 -6.453125 L 4.59375 -6.453125 L 4.59375 0 Z M 0.734375 -2.15625 C 0.734375 -1.550781 0.875 -1.085938 1.15625 -0.765625 C 1.445312 -0.453125 1.875 -0.296875 2.4375 -0.296875 C 3.007812 -0.296875 3.441406 -0.453125 3.734375 -0.765625 C 4.023438 -1.085938 4.171875 -1.550781 4.171875 -2.15625 C 4.171875 -2.757812 4.023438 -3.21875 3.734375 -3.53125 C 3.441406 -3.84375 3.007812 -4 2.4375 -4 C 2 -4 1.65625 -3.925781 1.40625 -3.78125 C 1.164062 -3.644531 0.992188 -3.441406 0.890625 -3.171875 C 0.785156 -2.898438 0.734375 -2.5625 0.734375 -2.15625 Z M 0.734375 -2.15625 "/></g></g></g><g fill="#ffffff" fill-opacity="1"><g transform="translate(37.758174, 35.944517)"><g><path d="M 1.71875 0 L -0.171875 -4.296875 L 0.296875 -4.296875 L 1.953125 -0.546875 L 3.609375 -4.296875 L 4.078125 -4.296875 L 2.1875 0 Z M 1.71875 0 "/></g></g></g><g fill="#ffffff" fill-opacity="1"><g transform="translate(41.670637, 35.944517)"><g><path d="M 0.21875 -5.609375 C 0.21875 -5.890625 0.359375 -6.03125 0.640625 -6.03125 C 0.929688 -6.03125 1.078125 -5.890625 1.078125 -5.609375 C 1.078125 -5.316406 0.929688 -5.171875 0.640625 -5.171875 C 0.359375 -5.171875 0.21875 -5.316406 0.21875 -5.609375 Z M 0.4375 0 L 0.4375 -4.296875 L 0.859375 -4.296875 L 0.859375 0 Z M 0.4375 0 "/></g></g></g><g fill="#ffffff" fill-opacity="1"><g transform="translate(42.960459, 35.944517)"><g><path d="M 0.28125 -3.296875 C 0.28125 -3.566406 0.363281 -3.78125 0.53125 -3.9375 C 0.695312 -4.101562 0.921875 -4.222656 1.203125 -4.296875 C 1.492188 -4.378906 1.820312 -4.421875 2.1875 -4.421875 C 2.894531 -4.421875 3.421875 -4.296875 3.765625 -4.046875 C 4.117188 -3.796875 4.296875 -3.394531 4.296875 -2.84375 L 3.875 -2.84375 C 3.875 -3.28125 3.71875 -3.582031 3.40625 -3.75 C 3.101562 -3.914062 2.695312 -4 2.1875 -4 C 1.789062 -4 1.488281 -3.960938 1.28125 -3.890625 C 1.070312 -3.816406 0.929688 -3.726562 0.859375 -3.625 C 0.785156 -3.519531 0.75 -3.410156 0.75 -3.296875 C 0.75 -3.171875 0.796875 -3.054688 0.890625 -2.953125 C 0.984375 -2.847656 1.144531 -2.75 1.375 -2.65625 C 1.601562 -2.5625 1.925781 -2.46875 2.34375 -2.375 C 2.769531 -2.28125 3.128906 -2.1875 3.421875 -2.09375 C 3.722656 -2 3.945312 -1.875 4.09375 -1.71875 C 4.25 -1.5625 4.328125 -1.335938 4.328125 -1.046875 C 4.328125 -0.609375 4.164062 -0.300781 3.84375 -0.125 C 3.519531 0.0390625 3.046875 0.125 2.421875 0.125 C 1.671875 0.125 1.125 0 0.78125 -0.25 C 0.4375 -0.5 0.265625 -0.90625 0.265625 -1.46875 L 0.6875 -1.46875 C 0.6875 -1.175781 0.757812 -0.941406 0.90625 -0.765625 C 1.0625 -0.597656 1.269531 -0.476562 1.53125 -0.40625 C 1.800781 -0.332031 2.097656 -0.296875 2.421875 -0.296875 C 2.960938 -0.296875 3.335938 -0.363281 3.546875 -0.5 C 3.753906 -0.632812 3.859375 -0.804688 3.859375 -1.015625 C 3.859375 -1.222656 3.789062 -1.378906 3.65625 -1.484375 C 3.53125 -1.585938 3.335938 -1.664062 3.078125 -1.71875 C 2.828125 -1.78125 2.519531 -1.847656 2.15625 -1.921875 C 1.84375 -1.992188 1.539062 -2.082031 1.25 -2.1875 C 0.96875 -2.300781 0.734375 -2.441406 0.546875 -2.609375 C 0.367188 -2.785156 0.28125 -3.015625 0.28125 -3.296875 Z M 0.28125 -3.296875 "/></g></g></g><g fill="#ffffff" fill-opacity="1"><g transform="translate(47.552228, 35.944517)"><g><path d="M 4.734375 -2.15625 L 4.734375 -1.984375 L 0.734375 -1.984375 C 0.765625 -1.359375 0.945312 -0.921875 1.28125 -0.671875 C 1.613281 -0.421875 2.066406 -0.296875 2.640625 -0.296875 C 2.953125 -0.296875 3.226562 -0.347656 3.46875 -0.453125 C 3.707031 -0.566406 3.894531 -0.710938 4.03125 -0.890625 C 4.175781 -1.066406 4.25 -1.257812 4.25 -1.46875 L 4.671875 -1.46875 C 4.671875 -0.988281 4.5 -0.601562 4.15625 -0.3125 C 3.8125 -0.0195312 3.304688 0.125 2.640625 0.125 C 1.835938 0.125 1.238281 -0.0664062 0.84375 -0.453125 C 0.457031 -0.847656 0.265625 -1.414062 0.265625 -2.15625 C 0.265625 -2.882812 0.453125 -3.441406 0.828125 -3.828125 C 1.210938 -4.222656 1.765625 -4.421875 2.484375 -4.421875 C 3.285156 -4.421875 3.859375 -4.222656 4.203125 -3.828125 C 4.554688 -3.441406 4.734375 -2.882812 4.734375 -2.15625 Z M 0.734375 -2.421875 L 4.25 -2.421875 C 4.207031 -3.003906 4.023438 -3.410156 3.703125 -3.640625 C 3.390625 -3.878906 2.988281 -4 2.5 -4 C 2.039062 -4 1.644531 -3.863281 1.3125 -3.59375 C 0.976562 -3.332031 0.785156 -2.941406 0.734375 -2.421875 Z M 0.734375 -2.421875 "/></g></g></g><g fill="#ffffff" fill-opacity="1"><g transform="translate(52.539543, 35.944517)"><g><path d="M 0.859375 0 L 0.4375 0 L 0.4375 -4.296875 L 0.859375 -4.296875 L 0.859375 -3.65625 C 0.992188 -3.894531 1.179688 -4.082031 1.421875 -4.21875 C 1.660156 -4.351562 1.96875 -4.421875 2.34375 -4.421875 C 2.914062 -4.421875 3.328125 -4.253906 3.578125 -3.921875 C 3.835938 -3.597656 3.96875 -3.144531 3.96875 -2.5625 L 3.53125 -2.5625 C 3.53125 -2.84375 3.492188 -3.09375 3.421875 -3.3125 C 3.359375 -3.53125 3.238281 -3.695312 3.0625 -3.8125 C 2.894531 -3.9375 2.648438 -4 2.328125 -4 C 1.867188 -4 1.507812 -3.84375 1.25 -3.53125 C 0.988281 -3.21875 0.859375 -2.757812 0.859375 -2.15625 Z M 0.859375 0 "/></g></g></g><g fill="#ffffff" fill-opacity="1"><g transform="translate(56.675575, 35.944517)"><g><path d="M 0.28125 -3.296875 C 0.28125 -3.566406 0.363281 -3.78125 0.53125 -3.9375 C 0.695312 -4.101562 0.921875 -4.222656 1.203125 -4.296875 C 1.492188 -4.378906 1.820312 -4.421875 2.1875 -4.421875 C 2.894531 -4.421875 3.421875 -4.296875 3.765625 -4.046875 C 4.117188 -3.796875 4.296875 -3.394531 4.296875 -2.84375 L 3.875 -2.84375 C 3.875 -3.28125 3.71875 -3.582031 3.40625 -3.75 C 3.101562 -3.914062 2.695312 -4 2.1875 -4 C 1.789062 -4 1.488281 -3.960938 1.28125 -3.890625 C 1.070312 -3.816406 0.929688 -3.726562 0.859375 -3.625 C 0.785156 -3.519531 0.75 -3.410156 0.75 -3.296875 C 0.75 -3.171875 0.796875 -3.054688 0.890625 -2.953125 C 0.984375 -2.847656 1.144531 -2.75 1.375 -2.65625 C 1.601562 -2.5625 1.925781 -2.46875 2.34375 -2.375 C 2.769531 -2.28125 3.128906 -2.1875 3.421875 -2.09375 C 3.722656 -2 3.945312 -1.875 4.09375 -1.71875 C 4.25 -1.5625 4.328125 -1.335938 4.328125 -1.046875 C 4.328125 -0.609375 4.164062 -0.300781 3.84375 -0.125 C 3.519531 0.0390625 3.046875 0.125 2.421875 0.125 C 1.671875 0.125 1.125 0 0.78125 -0.25 C 0.4375 -0.5 0.265625 -0.90625 0.265625 -1.46875 L 0.6875 -1.46875 C 0.6875 -1.175781 0.757812 -0.941406 0.90625 -0.765625 C 1.0625 -0.597656 1.269531 -0.476562 1.53125 -0.40625 C 1.800781 -0.332031 2.097656 -0.296875 2.421875 -0.296875 C 2.960938 -0.296875 3.335938 -0.363281 3.546875 -0.5 C 3.753906 -0.632812 3.859375 -0.804688 3.859375 -1.015625 C 3.859375 -1.222656 3.789062 -1.378906 3.65625 -1.484375 C 3.53125 -1.585938 3.335938 -1.664062 3.078125 -1.71875 C 2.828125 -1.78125 2.519531 -1.847656 2.15625 -1.921875 C 1.84375 -1.992188 1.539062 -2.082031 1.25 -2.1875 C 0.96875 -2.300781 0.734375 -2.441406 0.546875 -2.609375 C 0.367188 -2.785156 0.28125 -3.015625 0.28125 -3.296875 Z M 0.28125 -3.296875 "/></g></g></g><g clip-path="url(#08127b3dd8)"><g clip-path="url(#3807e37c42)"><path fill="#f4f4f4" d="M 25.519531 16.421875 L 33.902344 16.421875 L 33.902344 24.808594 L 25.519531 24.808594 Z M 25.519531 16.421875 " fill-opacity="1" fill-rule="nonzero"/></g></g><g clip-path="url(#12bc7811f8)"><path fill="#f4f4f4" d="M 25.554688 20.621094 L 25.554688 26.085938 C 25.554688 27.582031 26.765625 28.796875 28.265625 28.796875 L 28.265625 23.332031 C 28.265625 21.832031 27.050781 20.621094 25.554688 20.621094 Z M 25.554688 20.621094 " fill-opacity="1" fill-rule="nonzero"/></g><g clip-path="url(#ab2ea2fe04)"><g clip-path="url(#e2f375675e)"><path fill="#000000" d="M 27.933594 18.835938 L 31.492188 18.835938 L 31.492188 22.394531 L 27.933594 22.394531 Z M 27.933594 18.835938 " fill-opacity="1" fill-rule="nonzero"/></g></g></svg>