<svg width="16" height="17" viewBox="0 0 16 17" fill="none" xmlns="http://www.w3.org/2000/svg">
<path d="M9.59375 1.55937C10.0938 1.84062 10.5417 2.18437 10.9375 2.59062C11.3333 2.98645 11.6693 3.42395 11.9453 3.90312C12.2214 4.38229 12.4323 4.8927 12.5781 5.43437C12.724 5.97604 12.7969 6.53333 12.7969 7.10625C12.7969 7.825 12.6797 8.52031 12.4453 9.19218C12.2109 9.86406 11.8802 10.476 11.4531 11.0281L15.7656 15.3406C15.9219 15.4969 16 15.6844 16 15.9031C16 16.1219 15.9219 16.3094 15.7656 16.4656C15.6094 16.6219 15.4219 16.7 15.2031 16.7C14.9844 16.7 14.7969 16.6219 14.6406 16.4656L10.3281 12.1531C10.2135 12.2469 10.0964 12.3328 9.97656 12.4109C9.85677 12.4891 9.72917 12.5646 9.59375 12.6375C9.10417 12.9292 8.58854 13.1427 8.04688 13.2781C7.50521 13.424 6.95833 13.4969 6.40625 13.4969C5.85417 13.4969 5.30208 13.424 4.75 13.2781C4.20833 13.1427 3.69271 12.9292 3.20312 12.6375C2.70312 12.3562 2.25521 12.0177 1.85938 11.6219C1.46354 11.2156 1.1276 10.7729 0.851562 10.2937C0.575521 9.81458 0.364583 9.30416 0.21875 8.7625C0.0729167 8.22083 0 7.66875 0 7.10625V6.87187C0.0208333 6.31979 0.109375 5.78333 0.265625 5.2625C0.421875 4.75208 0.638021 4.2677 0.914062 3.80937C1.1901 3.35104 1.52083 2.92916 1.90625 2.54375C2.29167 2.15833 2.72396 1.8302 3.20312 1.55937C3.69271 1.2677 4.20833 1.05416 4.75 0.918747C5.30208 0.772914 5.85417 0.699997 6.40625 0.699997C6.95833 0.699997 7.50521 0.772914 8.04688 0.918747C8.58854 1.05416 9.10417 1.2677 9.59375 1.55937ZM4 2.95C3.625 3.15833 3.29167 3.41354 3 3.71562C2.69792 4.0177 2.44531 4.34583 2.24219 4.7C2.03906 5.05416 1.88021 5.43437 1.76562 5.84062C1.65104 6.24687 1.59375 6.66875 1.59375 7.10625C1.59375 7.53333 1.65104 7.95 1.76562 8.35625C1.88021 8.7625 2.03906 9.14531 2.24219 9.50468C2.44531 9.86406 2.69792 10.1896 3 10.4812C3.29167 10.7833 3.625 11.0437 4 11.2625C4.375 11.4708 4.76562 11.6323 5.17188 11.7469C5.57812 11.851 5.98698 11.9031 6.39844 11.9031C6.8099 11.9031 7.21875 11.851 7.625 11.7469C8.04167 11.6323 8.43229 11.4708 8.79688 11.2625C9.17188 11.0437 9.50521 10.7833 9.79688 10.4812C10.099 10.1896 10.3542 9.86406 10.5625 9.50468C10.7708 9.14531 10.9271 8.7625 11.0312 8.35625C11.1458 7.95 11.2031 7.53333 11.2031 7.10625C11.2031 6.66875 11.1458 6.24687 11.0312 5.84062C10.9271 5.43437 10.7708 5.05416 10.5625 4.7C10.3542 4.34583 10.099 4.0177 9.79688 3.71562C9.50521 3.41354 9.17188 3.15833 8.79688 2.95C8.43229 2.73125 8.04167 2.56979 7.625 2.46562C7.21875 2.35104 6.8099 2.29375 6.39844 2.29375C5.98698 2.29375 5.57812 2.35104 5.17188 2.46562C4.76562 2.56979 4.375 2.73125 4 2.95Z" fill="#233362"/>
</svg>
