<svg width="193" height="21" viewBox="0 0 193 21" fill="none" xmlns="http://www.w3.org/2000/svg">
<path d="M16.7785 7.70321L11.5453 7.14136L9.41026 2.34155L7.27523 7.14136L2.04199 7.70321L5.94284 11.2188L4.85125 16.3557L9.41026 13.723L13.9693 16.3557L12.8777 11.2188L16.7785 7.70321Z" fill="white"/>
<g clip-path="url(#clip0_59_6304)">
<path d="M16.7785 7.70321L11.5453 7.14136L9.41026 2.34155L7.27523 7.14136L2.04199 7.70321L5.94284 11.2188L4.85125 16.3557L9.41026 13.723L13.9693 16.3557L12.8777 11.2188L16.7785 7.70321Z" fill="#A3B9E0"/>
</g>
<path d="M36.7785 7.70321L31.5453 7.14136L29.4103 2.34155L27.2752 7.14136L22.042 7.70321L25.9428 11.2188L24.8512 16.3557L29.4103 13.723L33.9693 16.3557L32.8777 11.2188L36.7785 7.70321Z" fill="white"/>
<g clip-path="url(#clip1_59_6304)">
<path d="M36.7785 7.70321L31.5453 7.14136L29.4103 2.34155L27.2752 7.14136L22.042 7.70321L25.9428 11.2188L24.8512 16.3557L29.4103 13.723L33.9693 16.3557L32.8777 11.2188L36.7785 7.70321Z" fill="#A3B9E0"/>
</g>
<path d="M56.7785 7.70321L51.5453 7.14136L49.4103 2.34155L47.2752 7.14136L42.042 7.70321L45.9428 11.2188L44.8512 16.3557L49.4103 13.723L53.9693 16.3557L52.8777 11.2188L56.7785 7.70321Z" fill="white"/>
<g clip-path="url(#clip2_59_6304)">
<path d="M56.7785 7.70321L51.5453 7.14136L49.4103 2.34155L47.2752 7.14136L42.042 7.70321L45.9428 11.2188L44.8512 16.3557L49.4103 13.723L53.9693 16.3557L52.8777 11.2188L56.7785 7.70321Z" fill="#A3B9E0"/>
</g>
<path d="M76.7785 7.70321L71.5453 7.14136L69.4103 2.34155L67.2752 7.14136L62.042 7.70321L65.9428 11.2188L64.8512 16.3557L69.4103 13.723L73.9693 16.3557L72.8777 11.2188L76.7785 7.70321Z" fill="white"/>
<g clip-path="url(#clip3_59_6304)">
<path d="M76.7785 7.70321L71.5453 7.14136L69.4103 2.34155L67.2752 7.14136L62.042 7.70321L65.9428 11.2188L64.8512 16.3557L69.4103 13.723L73.9693 16.3557L72.8777 11.2188L76.7785 7.70321Z" fill="#A3B9E0"/>
</g>
<path d="M96.7785 7.70321L91.5453 7.14136L89.4103 2.34155L87.2752 7.14136L82.042 7.70321L85.9428 11.2188L84.8512 16.3557L89.4103 13.723L93.9693 16.3557L92.8777 11.2188L96.7785 7.70321Z" fill="white"/>
<g clip-path="url(#clip4_59_6304)">
<path d="M96.7785 7.70321L91.5453 7.14136L89.4103 2.34155L87.2752 7.14136L82.042 7.70321L85.9428 11.2188L84.8512 16.3557L89.4103 13.723L93.9693 16.3557L92.8777 11.2188L96.7785 7.70321Z" fill="#A3B9E0"/>
</g>
<defs>
<clipPath id="clip0_59_6304">
<rect width="17" height="17" fill="white" transform="translate(0.910156 0.945068)"/>
</clipPath>
<clipPath id="clip1_59_6304">
<rect width="17" height="17" fill="white" transform="translate(20.9102 0.945068)"/>
</clipPath>
<clipPath id="clip2_59_6304">
<rect width="17" height="17" fill="white" transform="translate(40.9102 0.945068)"/>
</clipPath>
<clipPath id="clip3_59_6304">
<rect width="17" height="17" fill="white" transform="translate(60.9102 0.945068)"/>
</clipPath>
<clipPath id="clip4_59_6304">
<rect width="13.59" height="17" fill="white" transform="translate(80.9102 0.945068)"/>
</clipPath>
</defs>
</svg>
