<svg width="58" height="58" viewBox="0 0 58 58" fill="none" xmlns="http://www.w3.org/2000/svg">
<rect x="20.3604" y="0.850098" width="42" height="41.9989" rx="20.9995" transform="rotate(29 20.3604 0.850098)" fill="#4A6CA8"/>
<path d="M37.6536 28.6374L37.6692 30.3141C37.6729 30.5976 37.5776 30.8361 37.3831 31.0298C37.1886 31.2234 36.9548 31.3249 36.6815 31.3342C36.6553 31.3331 36.6291 31.332 36.6029 31.3309C36.5768 31.3297 36.5483 31.3206 36.5175 31.3036L32.9663 30.7821C32.685 30.7333 32.4345 30.7921 32.215 30.9585C31.9954 31.1248 31.8642 31.3435 31.8212 31.6144C31.7998 31.7499 31.8096 31.8893 31.8508 32.0327C31.8919 32.1761 31.9627 32.3024 32.063 32.4116L34.3957 35.1315C34.5701 35.3488 34.6464 35.5921 34.6245 35.8613C34.6026 36.1305 34.4853 36.3602 34.2726 36.5505C34.251 36.5653 34.2294 36.5801 34.2078 36.5949C34.1862 36.6098 34.1645 36.6246 34.1429 36.6394L32.6974 37.5061C32.455 37.6531 32.2015 37.6935 31.9367 37.6271C31.6719 37.5607 31.4659 37.4063 31.3187 37.164C31.3142 37.148 31.307 37.1307 31.2973 37.1119C31.2876 37.0931 31.2805 37.0758 31.2759 37.0598L29.7212 33.6257C29.6116 33.3639 29.4289 33.1856 29.1732 33.0908C28.9175 32.9959 28.6639 33.0061 28.4124 33.1212C28.2895 33.1737 28.1828 33.2452 28.0924 33.3358C28.002 33.4263 27.9329 33.5388 27.8853 33.6731L26.4821 37.2564C26.3822 37.5091 26.2054 37.6891 25.9516 37.7963C25.6978 37.9035 25.4445 37.9071 25.1916 37.8071C25.1654 37.806 25.1421 37.7998 25.1216 37.7884C25.1011 37.777 25.0806 37.7657 25.0601 37.7543L23.5374 36.9102C23.2913 36.7738 23.1305 36.5742 23.0551 36.3113C22.9796 36.0484 23.0101 35.794 23.1464 35.548C23.1521 35.5378 23.1606 35.5224 23.172 35.5019C23.1833 35.4814 23.1919 35.466 23.1975 35.4558L25.4568 32.2868C25.6239 32.0579 25.6857 31.8074 25.6421 31.5354C25.5985 31.2634 25.4593 31.0489 25.2246 30.892C25.1232 30.809 25.0101 30.753 24.8854 30.7241C24.7607 30.6951 24.6323 30.691 24.5003 30.7116L20.595 31.3001C20.3207 31.3356 20.0716 31.2712 19.8476 31.1069C19.6237 30.9426 19.4939 30.7233 19.4583 30.449C19.4594 30.4228 19.4591 30.3992 19.4574 30.3781C19.4557 30.357 19.4525 30.3385 19.4479 30.3226L19.4236 28.4803C19.4199 28.1969 19.5152 27.9583 19.7097 27.7647C19.9042 27.571 20.138 27.4696 20.4113 27.4602C20.4375 27.4614 20.4636 27.4625 20.4898 27.4636C20.516 27.4647 20.5422 27.4658 20.5684 27.467L24.1111 28.0039C24.3822 28.0469 24.6275 27.9853 24.847 27.8189C25.0666 27.6526 25.1978 27.4339 25.2408 27.163C25.2623 27.0275 25.2524 26.8881 25.2113 26.7447C25.1701 26.6013 25.1045 26.4778 25.0144 26.3743L22.6971 23.6629C22.517 23.4559 22.4393 23.2152 22.464 22.9408C22.4887 22.6665 22.6046 22.4393 22.8116 22.2593C22.8389 22.2343 22.8634 22.2143 22.885 22.1995C22.9066 22.1847 22.9282 22.1699 22.9498 22.1551L24.4756 21.2524C24.7123 21.1156 24.963 21.0804 25.2278 21.1468C25.4926 21.2132 25.6935 21.3648 25.8304 21.6014C25.8452 21.623 25.8589 21.6407 25.8714 21.6543C25.884 21.668 25.8925 21.6828 25.8971 21.6987L27.4998 25.3002C27.6151 25.5516 27.8032 25.7262 28.064 25.8239C28.3249 25.9216 28.5811 25.9129 28.8326 25.7977C28.9452 25.7396 29.0467 25.6653 29.1372 25.5747C29.2276 25.4841 29.2989 25.3796 29.3511 25.2612L30.8106 21.6489C30.9162 21.3859 31.0958 21.2008 31.3496 21.0936C31.6034 20.9864 31.8619 20.9857 32.125 21.0913C32.1353 21.097 32.1506 21.1055 32.1711 21.1169C32.1916 21.1283 32.2122 21.1396 32.2327 21.151L33.7861 22.0121C34.0322 22.1485 34.193 22.3482 34.2684 22.611C34.3439 22.8739 34.3134 23.1284 34.1771 23.3743C34.1657 23.3948 34.1544 23.4153 34.143 23.4358C34.1316 23.4563 34.1231 23.4717 34.1174 23.4819L31.8137 26.5861C31.6466 26.815 31.5823 27.064 31.6207 27.3332C31.6592 27.6024 31.7878 27.8177 32.0066 27.9792C32.1183 28.0679 32.2365 28.1267 32.3612 28.1556C32.4859 28.1846 32.6143 28.1887 32.7463 28.1682L36.5218 27.6685C36.7962 27.633 37.0428 27.696 37.2616 27.8574C37.4804 28.0189 37.6076 28.2368 37.6432 28.5111C37.6523 28.543 37.6578 28.5694 37.6595 28.5905C37.6612 28.6115 37.6593 28.6272 37.6536 28.6374Z" fill="#1C4B42"/>
</svg>
