<svg width="14" height="14" viewBox="0 0 14 14" fill="none" xmlns="http://www.w3.org/2000/svg">
<path d="M13.5752 3.16716C13.3461 3.27355 13.1067 3.36153 12.8571 3.43109C12.6075 3.50065 12.3518 3.54771 12.0899 3.57226C12.3599 3.41677 12.5932 3.21627 12.7896 2.97075C12.986 2.72524 13.1333 2.45108 13.2315 2.14828C12.9778 2.29559 12.7139 2.42244 12.4397 2.52883C12.1656 2.63522 11.8812 2.71705 11.5866 2.77434C11.3492 2.52883 11.0689 2.33241 10.7457 2.18511C10.4224 2.0378 10.0766 1.96414 9.70838 1.96414C9.34829 1.96414 9.01275 2.02961 8.70177 2.16055C8.39078 2.29968 8.11867 2.48586 7.88543 2.7191C7.65219 2.95234 7.46601 3.22445 7.32688 3.53544C7.19594 3.84642 7.13047 4.18196 7.13047 4.54205C7.13047 4.64025 7.13661 4.73846 7.14889 4.83666C7.16116 4.93487 7.17548 5.03308 7.19185 5.13128C6.6599 5.09855 6.14432 5.01671 5.64511 4.88577C5.13771 4.74664 4.65896 4.56046 4.20885 4.32722C3.75874 4.09398 3.33727 3.81778 2.94445 3.49861C2.55163 3.17944 2.19563 2.82344 1.87646 2.43062C1.77007 2.62703 1.68619 2.83367 1.62481 3.05054C1.56343 3.26742 1.53274 3.49452 1.53274 3.73185C1.53274 4.18196 1.63708 4.59319 1.84577 4.96556C2.05446 5.33792 2.33066 5.64277 2.67438 5.8801C2.46979 5.87192 2.26724 5.83918 2.06673 5.78189C1.86623 5.72461 1.68005 5.64686 1.50819 5.54866V5.58548C1.50819 6.20745 1.70665 6.75372 2.10356 7.22429C2.50048 7.69486 2.99355 7.99153 3.58279 8.11428C3.46821 8.13884 3.35569 8.1593 3.2452 8.17566C3.13472 8.19203 3.0181 8.20021 2.89535 8.20021C2.81351 8.20021 2.73167 8.19612 2.64983 8.18794C2.56799 8.17975 2.49025 8.16748 2.41659 8.15111C2.58027 8.66669 2.88102 9.09225 3.31886 9.42779C3.75669 9.76332 4.25795 9.93518 4.82264 9.94337C4.38071 10.2953 3.88763 10.5674 3.34341 10.7597C2.79919 10.952 2.22427 11.0482 1.61867 11.0482C1.51228 11.0482 1.40794 11.0461 1.30564 11.042C1.20334 11.038 1.10309 11.0277 1.00488 11.0114C1.29132 11.1996 1.59003 11.3633 1.90101 11.5024C2.212 11.6497 2.53321 11.7725 2.86466 11.8707C3.1961 11.9689 3.53778 12.0425 3.88968 12.0916C4.24158 12.1489 4.59758 12.1776 4.95767 12.1776C6.14432 12.1776 7.19185 11.9525 8.10026 11.5024C9.01684 11.0605 9.78612 10.4876 10.4081 9.78378C11.0301 9.07997 11.5006 8.29433 11.8198 7.42684C12.139 6.55117 12.2986 5.68778 12.2986 4.83666L12.2863 4.50522C12.54 4.32517 12.7753 4.12263 12.9921 3.89757C13.209 3.67251 13.4034 3.42905 13.5752 3.16716Z" fill="white"/>
</svg>
